G04 #@! TF.GenerationSoftware,KiCad,Pcbnew,(5.1.4)-1*
G04 #@! TF.CreationDate,2019-11-14T19:44:45-06:00*
G04 #@! TF.ProjectId,Cree_GaN_Driver,43726565-5f47-4614-9e5f-447269766572,rev?*
G04 #@! TF.SameCoordinates,Original*
G04 #@! TF.FileFunction,Soldermask,Bot*
G04 #@! TF.FilePolarity,Negative*
%FSLAX46Y46*%
G04 Gerber Fmt 4.6, Leading zero omitted, Abs format (unit mm)*
G04 Created by KiCad (PCBNEW (5.1.4)-1) date 2019-11-14 19:44:45*
%MOMM*%
%LPD*%
G04 APERTURE LIST*
%ADD10C,0.300000*%
%ADD11C,0.020000*%
G04 APERTURE END LIST*
D10*
X159115500Y-156039357D02*
X159329785Y-156110785D01*
X159401214Y-156182214D01*
X159472642Y-156325071D01*
X159472642Y-156539357D01*
X159401214Y-156682214D01*
X159329785Y-156753642D01*
X159186928Y-156825071D01*
X158615500Y-156825071D01*
X158615500Y-155325071D01*
X159115500Y-155325071D01*
X159258357Y-155396500D01*
X159329785Y-155467928D01*
X159401214Y-155610785D01*
X159401214Y-155753642D01*
X159329785Y-155896500D01*
X159258357Y-155967928D01*
X159115500Y-156039357D01*
X158615500Y-156039357D01*
X160115500Y-156682214D02*
X160186928Y-156753642D01*
X160115500Y-156825071D01*
X160044071Y-156753642D01*
X160115500Y-156682214D01*
X160115500Y-156825071D01*
X160829785Y-156825071D02*
X160829785Y-155325071D01*
X161329785Y-156396500D01*
X161829785Y-155325071D01*
X161829785Y-156825071D01*
X163186928Y-156825071D02*
X163186928Y-156039357D01*
X163115500Y-155896500D01*
X162972642Y-155825071D01*
X162686928Y-155825071D01*
X162544071Y-155896500D01*
X163186928Y-156753642D02*
X163044071Y-156825071D01*
X162686928Y-156825071D01*
X162544071Y-156753642D01*
X162472642Y-156610785D01*
X162472642Y-156467928D01*
X162544071Y-156325071D01*
X162686928Y-156253642D01*
X163044071Y-156253642D01*
X163186928Y-156182214D01*
X163829785Y-156753642D02*
X163972642Y-156825071D01*
X164258357Y-156825071D01*
X164401214Y-156753642D01*
X164472642Y-156610785D01*
X164472642Y-156539357D01*
X164401214Y-156396500D01*
X164258357Y-156325071D01*
X164044071Y-156325071D01*
X163901214Y-156253642D01*
X163829785Y-156110785D01*
X163829785Y-156039357D01*
X163901214Y-155896500D01*
X164044071Y-155825071D01*
X164258357Y-155825071D01*
X164401214Y-155896500D01*
X165115500Y-156825071D02*
X165115500Y-155325071D01*
X165258357Y-156253642D02*
X165686928Y-156825071D01*
X165686928Y-155825071D02*
X165115500Y-156396500D01*
D11*
G36*
X157861000Y-141795500D02*
G01*
X157861080Y-141800980D01*
X157861081Y-141800985D01*
X158384145Y-177427482D01*
X158432500Y-180721000D01*
X140773696Y-180764548D01*
X106940140Y-180847985D01*
X106940139Y-180847985D01*
X106934000Y-180848000D01*
X106933177Y-180720377D01*
X106795107Y-159319599D01*
X106680000Y-141478000D01*
X157861000Y-141795500D01*
X157861000Y-141795500D01*
G37*
M02*
