G04 #@! TF.GenerationSoftware,KiCad,Pcbnew,(5.1.4)-1*
G04 #@! TF.CreationDate,2019-11-14T19:44:45-06:00*
G04 #@! TF.ProjectId,Cree_GaN_Driver,43726565-5f47-4614-9e5f-447269766572,rev?*
G04 #@! TF.SameCoordinates,Original*
G04 #@! TF.FileFunction,Copper,L1,Top*
G04 #@! TF.FilePolarity,Positive*
%FSLAX46Y46*%
G04 Gerber Fmt 4.6, Leading zero omitted, Abs format (unit mm)*
G04 Created by KiCad (PCBNEW (5.1.4)-1) date 2019-11-14 19:44:45*
%MOMM*%
%LPD*%
G04 APERTURE LIST*
%ADD10C,0.300000*%
%ADD11R,1.300000X1.500000*%
%ADD12C,6.400000*%
%ADD13C,0.020000*%
%ADD14C,5.000000*%
%ADD15R,1.250000X1.500000*%
%ADD16R,1.500000X1.250000*%
%ADD17R,1.600000X1.000000*%
%ADD18R,0.650000X0.400000*%
%ADD19R,2.750000X3.050000*%
%ADD20R,5.800000X6.400000*%
%ADD21R,1.200000X2.200000*%
%ADD22R,0.500000X0.900000*%
%ADD23R,1.500000X1.300000*%
%ADD24R,0.900000X0.500000*%
%ADD25R,1.700000X2.000000*%
%ADD26C,1.020000*%
%ADD27R,1.200000X0.900000*%
%ADD28R,1.400000X0.300000*%
%ADD29R,1.060000X0.650000*%
%ADD30R,0.900000X2.500000*%
%ADD31C,0.800000*%
%ADD32C,0.250000*%
%ADD33C,5.080000*%
%ADD34C,1.270000*%
%ADD35C,0.254000*%
G04 APERTURE END LIST*
D10*
X158389213Y-142942571D02*
X159246356Y-142942571D01*
X158817785Y-144442571D02*
X158817785Y-142942571D01*
X159960642Y-144442571D02*
X159817785Y-144371142D01*
X159746356Y-144299714D01*
X159674928Y-144156857D01*
X159674928Y-143728285D01*
X159746356Y-143585428D01*
X159817785Y-143514000D01*
X159960642Y-143442571D01*
X160174928Y-143442571D01*
X160317785Y-143514000D01*
X160389213Y-143585428D01*
X160460642Y-143728285D01*
X160460642Y-144156857D01*
X160389213Y-144299714D01*
X160317785Y-144371142D01*
X160174928Y-144442571D01*
X159960642Y-144442571D01*
X161103499Y-143442571D02*
X161103499Y-144942571D01*
X161103499Y-143514000D02*
X161246356Y-143442571D01*
X161532070Y-143442571D01*
X161674928Y-143514000D01*
X161746356Y-143585428D01*
X161817785Y-143728285D01*
X161817785Y-144156857D01*
X161746356Y-144299714D01*
X161674928Y-144371142D01*
X161532070Y-144442571D01*
X161246356Y-144442571D01*
X161103499Y-144371142D01*
D11*
X110159800Y-157386000D03*
X110159800Y-154686000D03*
D12*
X115138200Y-156006800D03*
X128117600Y-176479200D03*
X153949400Y-156438600D03*
D13*
G36*
X111735521Y-142707019D02*
G01*
X111856863Y-142725018D01*
X111975856Y-142754825D01*
X112091354Y-142796151D01*
X112202246Y-142848598D01*
X112307463Y-142911663D01*
X112405992Y-142984737D01*
X112496883Y-143067117D01*
X112579263Y-143158008D01*
X112652337Y-143256537D01*
X112715402Y-143361754D01*
X112767849Y-143472646D01*
X112809175Y-143588144D01*
X112838982Y-143707137D01*
X112856981Y-143828479D01*
X112863000Y-143951000D01*
X112863000Y-151451000D01*
X112856981Y-151573521D01*
X112838982Y-151694863D01*
X112809175Y-151813856D01*
X112767849Y-151929354D01*
X112715402Y-152040246D01*
X112652337Y-152145463D01*
X112579263Y-152243992D01*
X112496883Y-152334883D01*
X112405992Y-152417263D01*
X112307463Y-152490337D01*
X112202246Y-152553402D01*
X112091354Y-152605849D01*
X111975856Y-152647175D01*
X111856863Y-152676982D01*
X111735521Y-152694981D01*
X111613000Y-152701000D01*
X109113000Y-152701000D01*
X108990479Y-152694981D01*
X108869137Y-152676982D01*
X108750144Y-152647175D01*
X108634646Y-152605849D01*
X108523754Y-152553402D01*
X108418537Y-152490337D01*
X108320008Y-152417263D01*
X108229117Y-152334883D01*
X108146737Y-152243992D01*
X108073663Y-152145463D01*
X108010598Y-152040246D01*
X107958151Y-151929354D01*
X107916825Y-151813856D01*
X107887018Y-151694863D01*
X107869019Y-151573521D01*
X107863000Y-151451000D01*
X107863000Y-143951000D01*
X107869019Y-143828479D01*
X107887018Y-143707137D01*
X107916825Y-143588144D01*
X107958151Y-143472646D01*
X108010598Y-143361754D01*
X108073663Y-143256537D01*
X108146737Y-143158008D01*
X108229117Y-143067117D01*
X108320008Y-142984737D01*
X108418537Y-142911663D01*
X108523754Y-142848598D01*
X108634646Y-142796151D01*
X108750144Y-142754825D01*
X108869137Y-142725018D01*
X108990479Y-142707019D01*
X109113000Y-142701000D01*
X111613000Y-142701000D01*
X111735521Y-142707019D01*
X111735521Y-142707019D01*
G37*
D14*
X110363000Y-147701000D03*
D13*
G36*
X111735521Y-159471019D02*
G01*
X111856863Y-159489018D01*
X111975856Y-159518825D01*
X112091354Y-159560151D01*
X112202246Y-159612598D01*
X112307463Y-159675663D01*
X112405992Y-159748737D01*
X112496883Y-159831117D01*
X112579263Y-159922008D01*
X112652337Y-160020537D01*
X112715402Y-160125754D01*
X112767849Y-160236646D01*
X112809175Y-160352144D01*
X112838982Y-160471137D01*
X112856981Y-160592479D01*
X112863000Y-160715000D01*
X112863000Y-168215000D01*
X112856981Y-168337521D01*
X112838982Y-168458863D01*
X112809175Y-168577856D01*
X112767849Y-168693354D01*
X112715402Y-168804246D01*
X112652337Y-168909463D01*
X112579263Y-169007992D01*
X112496883Y-169098883D01*
X112405992Y-169181263D01*
X112307463Y-169254337D01*
X112202246Y-169317402D01*
X112091354Y-169369849D01*
X111975856Y-169411175D01*
X111856863Y-169440982D01*
X111735521Y-169458981D01*
X111613000Y-169465000D01*
X109113000Y-169465000D01*
X108990479Y-169458981D01*
X108869137Y-169440982D01*
X108750144Y-169411175D01*
X108634646Y-169369849D01*
X108523754Y-169317402D01*
X108418537Y-169254337D01*
X108320008Y-169181263D01*
X108229117Y-169098883D01*
X108146737Y-169007992D01*
X108073663Y-168909463D01*
X108010598Y-168804246D01*
X107958151Y-168693354D01*
X107916825Y-168577856D01*
X107887018Y-168458863D01*
X107869019Y-168337521D01*
X107863000Y-168215000D01*
X107863000Y-160715000D01*
X107869019Y-160592479D01*
X107887018Y-160471137D01*
X107916825Y-160352144D01*
X107958151Y-160236646D01*
X108010598Y-160125754D01*
X108073663Y-160020537D01*
X108146737Y-159922008D01*
X108229117Y-159831117D01*
X108320008Y-159748737D01*
X108418537Y-159675663D01*
X108523754Y-159612598D01*
X108634646Y-159560151D01*
X108750144Y-159518825D01*
X108869137Y-159489018D01*
X108990479Y-159471019D01*
X109113000Y-159465000D01*
X111613000Y-159465000D01*
X111735521Y-159471019D01*
X111735521Y-159471019D01*
G37*
D14*
X110363000Y-164465000D03*
D13*
G36*
X120625521Y-170139019D02*
G01*
X120746863Y-170157018D01*
X120865856Y-170186825D01*
X120981354Y-170228151D01*
X121092246Y-170280598D01*
X121197463Y-170343663D01*
X121295992Y-170416737D01*
X121386883Y-170499117D01*
X121469263Y-170590008D01*
X121542337Y-170688537D01*
X121605402Y-170793754D01*
X121657849Y-170904646D01*
X121699175Y-171020144D01*
X121728982Y-171139137D01*
X121746981Y-171260479D01*
X121753000Y-171383000D01*
X121753000Y-178883000D01*
X121746981Y-179005521D01*
X121728982Y-179126863D01*
X121699175Y-179245856D01*
X121657849Y-179361354D01*
X121605402Y-179472246D01*
X121542337Y-179577463D01*
X121469263Y-179675992D01*
X121386883Y-179766883D01*
X121295992Y-179849263D01*
X121197463Y-179922337D01*
X121092246Y-179985402D01*
X120981354Y-180037849D01*
X120865856Y-180079175D01*
X120746863Y-180108982D01*
X120625521Y-180126981D01*
X120503000Y-180133000D01*
X118003000Y-180133000D01*
X117880479Y-180126981D01*
X117759137Y-180108982D01*
X117640144Y-180079175D01*
X117524646Y-180037849D01*
X117413754Y-179985402D01*
X117308537Y-179922337D01*
X117210008Y-179849263D01*
X117119117Y-179766883D01*
X117036737Y-179675992D01*
X116963663Y-179577463D01*
X116900598Y-179472246D01*
X116848151Y-179361354D01*
X116806825Y-179245856D01*
X116777018Y-179126863D01*
X116759019Y-179005521D01*
X116753000Y-178883000D01*
X116753000Y-171383000D01*
X116759019Y-171260479D01*
X116777018Y-171139137D01*
X116806825Y-171020144D01*
X116848151Y-170904646D01*
X116900598Y-170793754D01*
X116963663Y-170688537D01*
X117036737Y-170590008D01*
X117119117Y-170499117D01*
X117210008Y-170416737D01*
X117308537Y-170343663D01*
X117413754Y-170280598D01*
X117524646Y-170228151D01*
X117640144Y-170186825D01*
X117759137Y-170157018D01*
X117880479Y-170139019D01*
X118003000Y-170133000D01*
X120503000Y-170133000D01*
X120625521Y-170139019D01*
X120625521Y-170139019D01*
G37*
D14*
X119253000Y-175133000D03*
D13*
G36*
X111735521Y-170012019D02*
G01*
X111856863Y-170030018D01*
X111975856Y-170059825D01*
X112091354Y-170101151D01*
X112202246Y-170153598D01*
X112307463Y-170216663D01*
X112405992Y-170289737D01*
X112496883Y-170372117D01*
X112579263Y-170463008D01*
X112652337Y-170561537D01*
X112715402Y-170666754D01*
X112767849Y-170777646D01*
X112809175Y-170893144D01*
X112838982Y-171012137D01*
X112856981Y-171133479D01*
X112863000Y-171256000D01*
X112863000Y-178756000D01*
X112856981Y-178878521D01*
X112838982Y-178999863D01*
X112809175Y-179118856D01*
X112767849Y-179234354D01*
X112715402Y-179345246D01*
X112652337Y-179450463D01*
X112579263Y-179548992D01*
X112496883Y-179639883D01*
X112405992Y-179722263D01*
X112307463Y-179795337D01*
X112202246Y-179858402D01*
X112091354Y-179910849D01*
X111975856Y-179952175D01*
X111856863Y-179981982D01*
X111735521Y-179999981D01*
X111613000Y-180006000D01*
X109113000Y-180006000D01*
X108990479Y-179999981D01*
X108869137Y-179981982D01*
X108750144Y-179952175D01*
X108634646Y-179910849D01*
X108523754Y-179858402D01*
X108418537Y-179795337D01*
X108320008Y-179722263D01*
X108229117Y-179639883D01*
X108146737Y-179548992D01*
X108073663Y-179450463D01*
X108010598Y-179345246D01*
X107958151Y-179234354D01*
X107916825Y-179118856D01*
X107887018Y-178999863D01*
X107869019Y-178878521D01*
X107863000Y-178756000D01*
X107863000Y-171256000D01*
X107869019Y-171133479D01*
X107887018Y-171012137D01*
X107916825Y-170893144D01*
X107958151Y-170777646D01*
X108010598Y-170666754D01*
X108073663Y-170561537D01*
X108146737Y-170463008D01*
X108229117Y-170372117D01*
X108320008Y-170289737D01*
X108418537Y-170216663D01*
X108523754Y-170153598D01*
X108634646Y-170101151D01*
X108750144Y-170059825D01*
X108869137Y-170030018D01*
X108990479Y-170012019D01*
X109113000Y-170006000D01*
X111613000Y-170006000D01*
X111735521Y-170012019D01*
X111735521Y-170012019D01*
G37*
D14*
X110363000Y-175006000D03*
D13*
G36*
X145390521Y-142643519D02*
G01*
X145511863Y-142661518D01*
X145630856Y-142691325D01*
X145746354Y-142732651D01*
X145857246Y-142785098D01*
X145962463Y-142848163D01*
X146060992Y-142921237D01*
X146151883Y-143003617D01*
X146234263Y-143094508D01*
X146307337Y-143193037D01*
X146370402Y-143298254D01*
X146422849Y-143409146D01*
X146464175Y-143524644D01*
X146493982Y-143643637D01*
X146511981Y-143764979D01*
X146518000Y-143887500D01*
X146518000Y-151387500D01*
X146511981Y-151510021D01*
X146493982Y-151631363D01*
X146464175Y-151750356D01*
X146422849Y-151865854D01*
X146370402Y-151976746D01*
X146307337Y-152081963D01*
X146234263Y-152180492D01*
X146151883Y-152271383D01*
X146060992Y-152353763D01*
X145962463Y-152426837D01*
X145857246Y-152489902D01*
X145746354Y-152542349D01*
X145630856Y-152583675D01*
X145511863Y-152613482D01*
X145390521Y-152631481D01*
X145268000Y-152637500D01*
X142768000Y-152637500D01*
X142645479Y-152631481D01*
X142524137Y-152613482D01*
X142405144Y-152583675D01*
X142289646Y-152542349D01*
X142178754Y-152489902D01*
X142073537Y-152426837D01*
X141975008Y-152353763D01*
X141884117Y-152271383D01*
X141801737Y-152180492D01*
X141728663Y-152081963D01*
X141665598Y-151976746D01*
X141613151Y-151865854D01*
X141571825Y-151750356D01*
X141542018Y-151631363D01*
X141524019Y-151510021D01*
X141518000Y-151387500D01*
X141518000Y-143887500D01*
X141524019Y-143764979D01*
X141542018Y-143643637D01*
X141571825Y-143524644D01*
X141613151Y-143409146D01*
X141665598Y-143298254D01*
X141728663Y-143193037D01*
X141801737Y-143094508D01*
X141884117Y-143003617D01*
X141975008Y-142921237D01*
X142073537Y-142848163D01*
X142178754Y-142785098D01*
X142289646Y-142732651D01*
X142405144Y-142691325D01*
X142524137Y-142661518D01*
X142645479Y-142643519D01*
X142768000Y-142637500D01*
X145268000Y-142637500D01*
X145390521Y-142643519D01*
X145390521Y-142643519D01*
G37*
D14*
X144018000Y-147637500D03*
D13*
G36*
X141072521Y-169948519D02*
G01*
X141193863Y-169966518D01*
X141312856Y-169996325D01*
X141428354Y-170037651D01*
X141539246Y-170090098D01*
X141644463Y-170153163D01*
X141742992Y-170226237D01*
X141833883Y-170308617D01*
X141916263Y-170399508D01*
X141989337Y-170498037D01*
X142052402Y-170603254D01*
X142104849Y-170714146D01*
X142146175Y-170829644D01*
X142175982Y-170948637D01*
X142193981Y-171069979D01*
X142200000Y-171192500D01*
X142200000Y-178692500D01*
X142193981Y-178815021D01*
X142175982Y-178936363D01*
X142146175Y-179055356D01*
X142104849Y-179170854D01*
X142052402Y-179281746D01*
X141989337Y-179386963D01*
X141916263Y-179485492D01*
X141833883Y-179576383D01*
X141742992Y-179658763D01*
X141644463Y-179731837D01*
X141539246Y-179794902D01*
X141428354Y-179847349D01*
X141312856Y-179888675D01*
X141193863Y-179918482D01*
X141072521Y-179936481D01*
X140950000Y-179942500D01*
X138450000Y-179942500D01*
X138327479Y-179936481D01*
X138206137Y-179918482D01*
X138087144Y-179888675D01*
X137971646Y-179847349D01*
X137860754Y-179794902D01*
X137755537Y-179731837D01*
X137657008Y-179658763D01*
X137566117Y-179576383D01*
X137483737Y-179485492D01*
X137410663Y-179386963D01*
X137347598Y-179281746D01*
X137295151Y-179170854D01*
X137253825Y-179055356D01*
X137224018Y-178936363D01*
X137206019Y-178815021D01*
X137200000Y-178692500D01*
X137200000Y-171192500D01*
X137206019Y-171069979D01*
X137224018Y-170948637D01*
X137253825Y-170829644D01*
X137295151Y-170714146D01*
X137347598Y-170603254D01*
X137410663Y-170498037D01*
X137483737Y-170399508D01*
X137566117Y-170308617D01*
X137657008Y-170226237D01*
X137755537Y-170153163D01*
X137860754Y-170090098D01*
X137971646Y-170037651D01*
X138087144Y-169996325D01*
X138206137Y-169966518D01*
X138327479Y-169948519D01*
X138450000Y-169942500D01*
X140950000Y-169942500D01*
X141072521Y-169948519D01*
X141072521Y-169948519D01*
G37*
D14*
X139700000Y-174942500D03*
D13*
G36*
X155931521Y-142707019D02*
G01*
X156052863Y-142725018D01*
X156171856Y-142754825D01*
X156287354Y-142796151D01*
X156398246Y-142848598D01*
X156503463Y-142911663D01*
X156601992Y-142984737D01*
X156692883Y-143067117D01*
X156775263Y-143158008D01*
X156848337Y-143256537D01*
X156911402Y-143361754D01*
X156963849Y-143472646D01*
X157005175Y-143588144D01*
X157034982Y-143707137D01*
X157052981Y-143828479D01*
X157059000Y-143951000D01*
X157059000Y-151451000D01*
X157052981Y-151573521D01*
X157034982Y-151694863D01*
X157005175Y-151813856D01*
X156963849Y-151929354D01*
X156911402Y-152040246D01*
X156848337Y-152145463D01*
X156775263Y-152243992D01*
X156692883Y-152334883D01*
X156601992Y-152417263D01*
X156503463Y-152490337D01*
X156398246Y-152553402D01*
X156287354Y-152605849D01*
X156171856Y-152647175D01*
X156052863Y-152676982D01*
X155931521Y-152694981D01*
X155809000Y-152701000D01*
X153309000Y-152701000D01*
X153186479Y-152694981D01*
X153065137Y-152676982D01*
X152946144Y-152647175D01*
X152830646Y-152605849D01*
X152719754Y-152553402D01*
X152614537Y-152490337D01*
X152516008Y-152417263D01*
X152425117Y-152334883D01*
X152342737Y-152243992D01*
X152269663Y-152145463D01*
X152206598Y-152040246D01*
X152154151Y-151929354D01*
X152112825Y-151813856D01*
X152083018Y-151694863D01*
X152065019Y-151573521D01*
X152059000Y-151451000D01*
X152059000Y-143951000D01*
X152065019Y-143828479D01*
X152083018Y-143707137D01*
X152112825Y-143588144D01*
X152154151Y-143472646D01*
X152206598Y-143361754D01*
X152269663Y-143256537D01*
X152342737Y-143158008D01*
X152425117Y-143067117D01*
X152516008Y-142984737D01*
X152614537Y-142911663D01*
X152719754Y-142848598D01*
X152830646Y-142796151D01*
X152946144Y-142754825D01*
X153065137Y-142725018D01*
X153186479Y-142707019D01*
X153309000Y-142701000D01*
X155809000Y-142701000D01*
X155931521Y-142707019D01*
X155931521Y-142707019D01*
G37*
D14*
X154559000Y-147701000D03*
D13*
G36*
X155931521Y-169885019D02*
G01*
X156052863Y-169903018D01*
X156171856Y-169932825D01*
X156287354Y-169974151D01*
X156398246Y-170026598D01*
X156503463Y-170089663D01*
X156601992Y-170162737D01*
X156692883Y-170245117D01*
X156775263Y-170336008D01*
X156848337Y-170434537D01*
X156911402Y-170539754D01*
X156963849Y-170650646D01*
X157005175Y-170766144D01*
X157034982Y-170885137D01*
X157052981Y-171006479D01*
X157059000Y-171129000D01*
X157059000Y-178629000D01*
X157052981Y-178751521D01*
X157034982Y-178872863D01*
X157005175Y-178991856D01*
X156963849Y-179107354D01*
X156911402Y-179218246D01*
X156848337Y-179323463D01*
X156775263Y-179421992D01*
X156692883Y-179512883D01*
X156601992Y-179595263D01*
X156503463Y-179668337D01*
X156398246Y-179731402D01*
X156287354Y-179783849D01*
X156171856Y-179825175D01*
X156052863Y-179854982D01*
X155931521Y-179872981D01*
X155809000Y-179879000D01*
X153309000Y-179879000D01*
X153186479Y-179872981D01*
X153065137Y-179854982D01*
X152946144Y-179825175D01*
X152830646Y-179783849D01*
X152719754Y-179731402D01*
X152614537Y-179668337D01*
X152516008Y-179595263D01*
X152425117Y-179512883D01*
X152342737Y-179421992D01*
X152269663Y-179323463D01*
X152206598Y-179218246D01*
X152154151Y-179107354D01*
X152112825Y-178991856D01*
X152083018Y-178872863D01*
X152065019Y-178751521D01*
X152059000Y-178629000D01*
X152059000Y-171129000D01*
X152065019Y-171006479D01*
X152083018Y-170885137D01*
X152112825Y-170766144D01*
X152154151Y-170650646D01*
X152206598Y-170539754D01*
X152269663Y-170434537D01*
X152342737Y-170336008D01*
X152425117Y-170245117D01*
X152516008Y-170162737D01*
X152614537Y-170089663D01*
X152719754Y-170026598D01*
X152830646Y-169974151D01*
X152946144Y-169932825D01*
X153065137Y-169903018D01*
X153186479Y-169885019D01*
X153309000Y-169879000D01*
X155809000Y-169879000D01*
X155931521Y-169885019D01*
X155931521Y-169885019D01*
G37*
D14*
X154559000Y-174879000D03*
D15*
X121666000Y-153523000D03*
X121666000Y-151023000D03*
X121666000Y-145201000D03*
X121666000Y-147701000D03*
X119253000Y-151023000D03*
X119253000Y-153523000D03*
X119253000Y-147701000D03*
X119253000Y-145201000D03*
D16*
X128758000Y-144780000D03*
X126258000Y-144780000D03*
D17*
X131572000Y-151638000D03*
X131572000Y-148638000D03*
D16*
X127865500Y-167068500D03*
X130365500Y-167068500D03*
D18*
X138049000Y-160371000D03*
X138049000Y-161671000D03*
X136149000Y-161021000D03*
X138049000Y-161021000D03*
X136149000Y-161671000D03*
X136149000Y-160371000D03*
D19*
X144780000Y-171323000D03*
X147830000Y-174673000D03*
X147830000Y-171323000D03*
X144780000Y-174673000D03*
D20*
X146305000Y-172998000D03*
D21*
X144025000Y-166698000D03*
X146305000Y-166698000D03*
X148585000Y-166698000D03*
D22*
X127254000Y-151638000D03*
X128754000Y-151638000D03*
D23*
X131605000Y-154178000D03*
X128905000Y-154178000D03*
X130556000Y-158369000D03*
X133256000Y-158369000D03*
X133256000Y-161036000D03*
X130556000Y-161036000D03*
X140114000Y-157353000D03*
X137414000Y-157353000D03*
D24*
X140081000Y-159663000D03*
X140081000Y-161163000D03*
D11*
X133159500Y-170514000D03*
X133159500Y-167814000D03*
X132588000Y-173228000D03*
X132588000Y-175928000D03*
D23*
X135730000Y-164338000D03*
X138430000Y-164338000D03*
X141130000Y-166687500D03*
X138430000Y-166687500D03*
D25*
X116738400Y-161671000D03*
X116738400Y-165671000D03*
D13*
G36*
X125756994Y-167893228D02*
G01*
X125781748Y-167896900D01*
X125806023Y-167902980D01*
X125829584Y-167911411D01*
X125852206Y-167922110D01*
X125873670Y-167934975D01*
X125893770Y-167949882D01*
X125912312Y-167966688D01*
X125929118Y-167985230D01*
X125944025Y-168005330D01*
X125956890Y-168026794D01*
X125967589Y-168049416D01*
X125976020Y-168072977D01*
X125982100Y-168097252D01*
X125985772Y-168122006D01*
X125987000Y-168147000D01*
X125987000Y-168657000D01*
X125985772Y-168681994D01*
X125982100Y-168706748D01*
X125976020Y-168731023D01*
X125967589Y-168754584D01*
X125956890Y-168777206D01*
X125944025Y-168798670D01*
X125929118Y-168818770D01*
X125912312Y-168837312D01*
X125893770Y-168854118D01*
X125873670Y-168869025D01*
X125852206Y-168881890D01*
X125829584Y-168892589D01*
X125806023Y-168901020D01*
X125781748Y-168907100D01*
X125756994Y-168910772D01*
X125732000Y-168912000D01*
X123442000Y-168912000D01*
X123417006Y-168910772D01*
X123392252Y-168907100D01*
X123367977Y-168901020D01*
X123344416Y-168892589D01*
X123321794Y-168881890D01*
X123300330Y-168869025D01*
X123280230Y-168854118D01*
X123261688Y-168837312D01*
X123244882Y-168818770D01*
X123229975Y-168798670D01*
X123217110Y-168777206D01*
X123206411Y-168754584D01*
X123197980Y-168731023D01*
X123191900Y-168706748D01*
X123188228Y-168681994D01*
X123187000Y-168657000D01*
X123187000Y-168147000D01*
X123188228Y-168122006D01*
X123191900Y-168097252D01*
X123197980Y-168072977D01*
X123206411Y-168049416D01*
X123217110Y-168026794D01*
X123229975Y-168005330D01*
X123244882Y-167985230D01*
X123261688Y-167966688D01*
X123280230Y-167949882D01*
X123300330Y-167934975D01*
X123321794Y-167922110D01*
X123344416Y-167911411D01*
X123367977Y-167902980D01*
X123392252Y-167896900D01*
X123417006Y-167893228D01*
X123442000Y-167892000D01*
X125732000Y-167892000D01*
X125756994Y-167893228D01*
X125756994Y-167893228D01*
G37*
D26*
X124587000Y-168402000D03*
D13*
G36*
X125756994Y-162813228D02*
G01*
X125781748Y-162816900D01*
X125806023Y-162822980D01*
X125829584Y-162831411D01*
X125852206Y-162842110D01*
X125873670Y-162854975D01*
X125893770Y-162869882D01*
X125912312Y-162886688D01*
X125929118Y-162905230D01*
X125944025Y-162925330D01*
X125956890Y-162946794D01*
X125967589Y-162969416D01*
X125976020Y-162992977D01*
X125982100Y-163017252D01*
X125985772Y-163042006D01*
X125987000Y-163067000D01*
X125987000Y-163577000D01*
X125985772Y-163601994D01*
X125982100Y-163626748D01*
X125976020Y-163651023D01*
X125967589Y-163674584D01*
X125956890Y-163697206D01*
X125944025Y-163718670D01*
X125929118Y-163738770D01*
X125912312Y-163757312D01*
X125893770Y-163774118D01*
X125873670Y-163789025D01*
X125852206Y-163801890D01*
X125829584Y-163812589D01*
X125806023Y-163821020D01*
X125781748Y-163827100D01*
X125756994Y-163830772D01*
X125732000Y-163832000D01*
X123442000Y-163832000D01*
X123417006Y-163830772D01*
X123392252Y-163827100D01*
X123367977Y-163821020D01*
X123344416Y-163812589D01*
X123321794Y-163801890D01*
X123300330Y-163789025D01*
X123280230Y-163774118D01*
X123261688Y-163757312D01*
X123244882Y-163738770D01*
X123229975Y-163718670D01*
X123217110Y-163697206D01*
X123206411Y-163674584D01*
X123197980Y-163651023D01*
X123191900Y-163626748D01*
X123188228Y-163601994D01*
X123187000Y-163577000D01*
X123187000Y-163067000D01*
X123188228Y-163042006D01*
X123191900Y-163017252D01*
X123197980Y-162992977D01*
X123206411Y-162969416D01*
X123217110Y-162946794D01*
X123229975Y-162925330D01*
X123244882Y-162905230D01*
X123261688Y-162886688D01*
X123280230Y-162869882D01*
X123300330Y-162854975D01*
X123321794Y-162842110D01*
X123344416Y-162831411D01*
X123367977Y-162822980D01*
X123392252Y-162816900D01*
X123417006Y-162813228D01*
X123442000Y-162812000D01*
X125732000Y-162812000D01*
X125756994Y-162813228D01*
X125756994Y-162813228D01*
G37*
D26*
X124587000Y-163322000D03*
D13*
G36*
X121066994Y-165353228D02*
G01*
X121091748Y-165356900D01*
X121116023Y-165362980D01*
X121139584Y-165371411D01*
X121162206Y-165382110D01*
X121183670Y-165394975D01*
X121203770Y-165409882D01*
X121222312Y-165426688D01*
X121239118Y-165445230D01*
X121254025Y-165465330D01*
X121266890Y-165486794D01*
X121277589Y-165509416D01*
X121286020Y-165532977D01*
X121292100Y-165557252D01*
X121295772Y-165582006D01*
X121297000Y-165607000D01*
X121297000Y-166117000D01*
X121295772Y-166141994D01*
X121292100Y-166166748D01*
X121286020Y-166191023D01*
X121277589Y-166214584D01*
X121266890Y-166237206D01*
X121254025Y-166258670D01*
X121239118Y-166278770D01*
X121222312Y-166297312D01*
X121203770Y-166314118D01*
X121183670Y-166329025D01*
X121162206Y-166341890D01*
X121139584Y-166352589D01*
X121116023Y-166361020D01*
X121091748Y-166367100D01*
X121066994Y-166370772D01*
X121042000Y-166372000D01*
X118752000Y-166372000D01*
X118727006Y-166370772D01*
X118702252Y-166367100D01*
X118677977Y-166361020D01*
X118654416Y-166352589D01*
X118631794Y-166341890D01*
X118610330Y-166329025D01*
X118590230Y-166314118D01*
X118571688Y-166297312D01*
X118554882Y-166278770D01*
X118539975Y-166258670D01*
X118527110Y-166237206D01*
X118516411Y-166214584D01*
X118507980Y-166191023D01*
X118501900Y-166166748D01*
X118498228Y-166141994D01*
X118497000Y-166117000D01*
X118497000Y-165607000D01*
X118498228Y-165582006D01*
X118501900Y-165557252D01*
X118507980Y-165532977D01*
X118516411Y-165509416D01*
X118527110Y-165486794D01*
X118539975Y-165465330D01*
X118554882Y-165445230D01*
X118571688Y-165426688D01*
X118590230Y-165409882D01*
X118610330Y-165394975D01*
X118631794Y-165382110D01*
X118654416Y-165371411D01*
X118677977Y-165362980D01*
X118702252Y-165356900D01*
X118727006Y-165353228D01*
X118752000Y-165352000D01*
X121042000Y-165352000D01*
X121066994Y-165353228D01*
X121066994Y-165353228D01*
G37*
D26*
X119897000Y-165862000D03*
D27*
X132166000Y-179451000D03*
X134366000Y-179451000D03*
D28*
X128819000Y-147209000D03*
X128819000Y-147709000D03*
X128819000Y-148209000D03*
X128819000Y-148709000D03*
X128819000Y-149209000D03*
X124419000Y-149209000D03*
X124419000Y-148709000D03*
X124419000Y-148209000D03*
X124419000Y-147709000D03*
X124419000Y-147209000D03*
D29*
X130386000Y-169420500D03*
X130386000Y-171320500D03*
X128186000Y-171320500D03*
X128186000Y-170370500D03*
X128186000Y-169420500D03*
D30*
X150738500Y-151320500D03*
X147838500Y-151320500D03*
D11*
X124053600Y-173736000D03*
X124053600Y-171036000D03*
D23*
X124286000Y-159080200D03*
X121586000Y-159080200D03*
D31*
X108966000Y-179070000D03*
X111760000Y-178816000D03*
X108585000Y-176657000D03*
X111252000Y-175260000D03*
X108839000Y-173736000D03*
X111633000Y-172593000D03*
X108585000Y-171069000D03*
X153289000Y-179197000D03*
X156337000Y-178435000D03*
X152908000Y-176530000D03*
X156337000Y-175133000D03*
X153162000Y-173609000D03*
X156083000Y-172339000D03*
X153162000Y-170815000D03*
X155829000Y-151892000D03*
X152908000Y-150876000D03*
X155956000Y-149606000D03*
X153035000Y-148336000D03*
X155829000Y-146939000D03*
X152908000Y-145796000D03*
X156083000Y-144526000D03*
X152908000Y-143637000D03*
X124841000Y-144780000D03*
X131572000Y-152781000D03*
X135001000Y-160401000D03*
X138049000Y-162814000D03*
X120523000Y-153543000D03*
X126746000Y-171323000D03*
D32*
X127631802Y-148209000D02*
X127631294Y-148209508D01*
X127635000Y-148209000D02*
X127631802Y-148209000D01*
X128819000Y-148209000D02*
X127631294Y-148209508D01*
X126258000Y-144780000D02*
X124841000Y-144780000D01*
X131572000Y-151638000D02*
X131572000Y-152781000D01*
X131605000Y-152814000D02*
X131572000Y-152781000D01*
X131605000Y-154178000D02*
X131605000Y-152814000D01*
X136149000Y-160371000D02*
X135031000Y-160371000D01*
X135031000Y-160371000D02*
X135001000Y-160401000D01*
X138049000Y-161671000D02*
X138049000Y-162814000D01*
X128186000Y-176446000D02*
X128397000Y-176657000D01*
X128397000Y-176657000D02*
X128397000Y-176784000D01*
X120128000Y-153523000D02*
X120148000Y-153543000D01*
X119253000Y-153523000D02*
X120128000Y-153523000D01*
X120148000Y-153543000D02*
X120523000Y-153543000D01*
X120543000Y-153523000D02*
X120523000Y-153543000D01*
X121666000Y-153523000D02*
X120543000Y-153523000D01*
X128186000Y-171320500D02*
X126748500Y-171320500D01*
X126748500Y-171320500D02*
X126746000Y-171323000D01*
X127631294Y-148209508D02*
X127127000Y-148209508D01*
X127127000Y-148209508D02*
X127127000Y-148209000D01*
X127127000Y-148209000D02*
X126238000Y-147320000D01*
X126238000Y-147320000D02*
X126238000Y-144780000D01*
X126238000Y-144780000D02*
X126111000Y-144653000D01*
D33*
X154559000Y-147701000D02*
X154559000Y-155638500D01*
X154559000Y-155638500D02*
X154178000Y-156019500D01*
X154178000Y-156019500D02*
X154114500Y-156019500D01*
X154559000Y-174879000D02*
X154559000Y-170116500D01*
X154559000Y-170116500D02*
X154495500Y-170053000D01*
X154495500Y-170053000D02*
X154495500Y-156527500D01*
X154495500Y-156527500D02*
X154114500Y-156146500D01*
D32*
X152463500Y-151320500D02*
X152908000Y-150876000D01*
X150738500Y-151320500D02*
X152463500Y-151320500D01*
X123469000Y-148209000D02*
X123405500Y-148272500D01*
X124419000Y-148209000D02*
X123469000Y-148209000D01*
X123405500Y-148272500D02*
X122872500Y-148805500D01*
X122872500Y-148805500D02*
X122872500Y-149733000D01*
X122872500Y-149733000D02*
X121729500Y-150876000D01*
X121729500Y-150876000D02*
X121729500Y-151066500D01*
X120791000Y-151023000D02*
X120771000Y-151003000D01*
X121666000Y-151023000D02*
X120791000Y-151023000D01*
X120771000Y-151003000D02*
X119189500Y-151003000D01*
X122541000Y-145201000D02*
X122564500Y-145224500D01*
X121666000Y-145201000D02*
X122541000Y-145201000D01*
X122564500Y-145224500D02*
X123126500Y-145224500D01*
X123126500Y-145224500D02*
X124396500Y-146494500D01*
X124396500Y-146494500D02*
X124396500Y-147129500D01*
X124396500Y-147129500D02*
X124396500Y-147193000D01*
X120791000Y-145201000D02*
X120767500Y-145224500D01*
X121666000Y-145201000D02*
X120791000Y-145201000D01*
X120767500Y-145224500D02*
X119189500Y-145224500D01*
X124419000Y-147709000D02*
X121737500Y-147709000D01*
X121737500Y-147709000D02*
X121729500Y-147701000D01*
X121729500Y-147701000D02*
X121666000Y-147701000D01*
X119253000Y-147701000D02*
X120128000Y-147701000D01*
X120128000Y-147701000D02*
X121729500Y-147701000D01*
X130386000Y-169420500D02*
X130386000Y-167048000D01*
X130386000Y-167048000D02*
X130343000Y-167005000D01*
X130365500Y-167068500D02*
X130492500Y-167068500D01*
X130492500Y-167068500D02*
X131953000Y-165608000D01*
X131953000Y-165608000D02*
X132270500Y-165608000D01*
X132270500Y-165608000D02*
X133159500Y-166497000D01*
X133159500Y-166497000D02*
X133159500Y-167767000D01*
X133096000Y-158369000D02*
X133223000Y-158369000D01*
X137414000Y-157353000D02*
X137287000Y-157353000D01*
X137287000Y-157353000D02*
X136715500Y-157924500D01*
X136715500Y-157924500D02*
X133731000Y-157924500D01*
X133731000Y-157924500D02*
X133223000Y-158432500D01*
X128758000Y-145655000D02*
X128841500Y-145738500D01*
X128758000Y-144780000D02*
X128758000Y-145655000D01*
X128841500Y-145738500D02*
X128841500Y-147193000D01*
X128841500Y-147193000D02*
X128841500Y-147233999D01*
X133256000Y-158369000D02*
X133256000Y-156240500D01*
X133256000Y-156240500D02*
X133858000Y-155638500D01*
X133858000Y-155638500D02*
X133858000Y-148018500D01*
X133858000Y-148018500D02*
X130619500Y-144780000D01*
X130619500Y-144780000D02*
X128778000Y-144780000D01*
X128758000Y-144780000D02*
X128651000Y-144780000D01*
X128651000Y-144780000D02*
X127000000Y-143129000D01*
X127000000Y-143129000D02*
X118046500Y-143129000D01*
X118046500Y-143129000D02*
X113982500Y-147193000D01*
X113982500Y-147193000D02*
X110744000Y-147193000D01*
X110744000Y-147193000D02*
X110363000Y-147574000D01*
X132143500Y-163576000D02*
X131953000Y-163766500D01*
X131953000Y-165608000D02*
X131953000Y-163766500D01*
X132143500Y-159994600D02*
X132143500Y-159956500D01*
X132143500Y-159994600D02*
X132143500Y-163576000D01*
X132143500Y-159956500D02*
X132765800Y-159334200D01*
X132765800Y-159334200D02*
X132765800Y-158711900D01*
X132765800Y-158711900D02*
X133083300Y-158394400D01*
X133083300Y-158394400D02*
X133083300Y-158381700D01*
X128966000Y-170370500D02*
X128186000Y-170370500D01*
X127990500Y-167068500D02*
X129006500Y-168084500D01*
X127865500Y-167068500D02*
X127990500Y-167068500D01*
X129006500Y-168084500D02*
X129032000Y-168084500D01*
X129032000Y-168084500D02*
X129286000Y-168338500D01*
X129286000Y-168338500D02*
X129286000Y-170050500D01*
X129286000Y-170050500D02*
X128966000Y-170370500D01*
X128819000Y-148709000D02*
X131500500Y-148709000D01*
X131500500Y-148709000D02*
X131508500Y-148717000D01*
X131508500Y-148717000D02*
X131572000Y-148717000D01*
X127254000Y-149324000D02*
X127254000Y-150938000D01*
X128819000Y-148709000D02*
X127869000Y-148709000D01*
X127869000Y-148709000D02*
X127254000Y-149324000D01*
X127254000Y-150938000D02*
X127254000Y-151638000D01*
X127254000Y-166560500D02*
X127762000Y-167068500D01*
X127762000Y-167068500D02*
X127825500Y-167068500D01*
X128016000Y-167068500D02*
X131191000Y-163893500D01*
X127865500Y-167068500D02*
X128016000Y-167068500D01*
X131686300Y-162280600D02*
X131191000Y-162775900D01*
X131686300Y-159524700D02*
X131686300Y-162280600D01*
X131965700Y-159245300D02*
X131686300Y-159524700D01*
X131965700Y-157162500D02*
X131965700Y-159245300D01*
X131643701Y-156840501D02*
X131965700Y-157162500D01*
X131191000Y-163893500D02*
X131191000Y-162775900D01*
X127254000Y-151638000D02*
X127254000Y-155257500D01*
X131631001Y-156840501D02*
X131643701Y-156840501D01*
X127254000Y-155257500D02*
X128143000Y-156146500D01*
X128143000Y-156146500D02*
X130937000Y-156146500D01*
X130937000Y-156146500D02*
X131631001Y-156840501D01*
X111379000Y-163322000D02*
X110236000Y-164465000D01*
X111379000Y-160972500D02*
X111379000Y-163322000D01*
X110159800Y-153686000D02*
X110185200Y-153660600D01*
X110159800Y-154686000D02*
X110159800Y-153686000D01*
X110185200Y-153660600D02*
X110185200Y-147726400D01*
X110185200Y-147726400D02*
X110286800Y-147828000D01*
X120904000Y-157226000D02*
X120548400Y-157226000D01*
X123419000Y-157226000D02*
X120548400Y-157226000D01*
X123419000Y-157226000D02*
X123801683Y-157149879D01*
X123801683Y-157149879D02*
X124126106Y-156933106D01*
X124126106Y-156933106D02*
X124342879Y-156608683D01*
X124342879Y-156608683D02*
X124419000Y-156226000D01*
X124419000Y-156226000D02*
X124419000Y-149209000D01*
X110159800Y-157386000D02*
X110159800Y-158386000D01*
X110159800Y-158386000D02*
X110159800Y-159816800D01*
X110159800Y-159816800D02*
X111328200Y-160985200D01*
X120548400Y-157226000D02*
X120065800Y-157226000D01*
X120065800Y-157226000D02*
X117246400Y-160045400D01*
X117246400Y-160045400D02*
X115341400Y-160045400D01*
X115341400Y-160045400D02*
X114274600Y-161112200D01*
X114274600Y-161112200D02*
X111556800Y-161112200D01*
X111556800Y-161112200D02*
X111379000Y-160934400D01*
X138624000Y-160371000D02*
X139292500Y-159702500D01*
X138049000Y-160371000D02*
X138624000Y-160371000D01*
X139292500Y-159702500D02*
X140081000Y-159702500D01*
X140114000Y-158253000D02*
X140081000Y-158286000D01*
X140114000Y-157353000D02*
X140114000Y-158253000D01*
X140081000Y-158286000D02*
X140081000Y-159639000D01*
X140081000Y-159639000D02*
X140081000Y-159702500D01*
X135349001Y-161126001D02*
X133757501Y-161126001D01*
X136149000Y-161021000D02*
X135454002Y-161021000D01*
X135454002Y-161021000D02*
X135349001Y-161126001D01*
X133757501Y-161126001D02*
X133667500Y-161036000D01*
X133667500Y-161036000D02*
X133286500Y-161036000D01*
X133286500Y-161036000D02*
X133350000Y-161036000D01*
X138049000Y-161021000D02*
X139939000Y-161021000D01*
X139939000Y-161021000D02*
X140081000Y-161163000D01*
X136149000Y-161671000D02*
X136149000Y-162121000D01*
X136149000Y-162121000D02*
X136149000Y-163952000D01*
X136149000Y-163952000D02*
X135763000Y-164338000D01*
X148585000Y-168048000D02*
X148585000Y-166698000D01*
X147850000Y-168783000D02*
X148585000Y-168048000D01*
X140652500Y-168783000D02*
X147850000Y-168783000D01*
X138430000Y-166687500D02*
X138557000Y-166687500D01*
X138557000Y-166687500D02*
X140652500Y-168783000D01*
X138430000Y-164338000D02*
X138430000Y-166687500D01*
X138430000Y-166687500D02*
X138430000Y-166560500D01*
X128819000Y-149209000D02*
X128819000Y-151597000D01*
X128819000Y-151597000D02*
X128778000Y-151638000D01*
X128754000Y-152338000D02*
X128778000Y-152362000D01*
X128754000Y-151638000D02*
X128754000Y-152338000D01*
X128778000Y-152362000D02*
X128778000Y-154051000D01*
X128778000Y-154051000D02*
X128778000Y-154241500D01*
X130556000Y-161036000D02*
X130556000Y-160136000D01*
X130556000Y-160136000D02*
X130556000Y-158369000D01*
X130556000Y-158369000D02*
X130619500Y-158432500D01*
X125369000Y-148709000D02*
X125631000Y-148971000D01*
X124419000Y-148709000D02*
X125369000Y-148709000D01*
X129123500Y-158369000D02*
X125631000Y-154876500D01*
X130556000Y-158369000D02*
X129123500Y-158369000D01*
X125631000Y-148971000D02*
X125631000Y-154876500D01*
X134366000Y-179451000D02*
X134366000Y-175133000D01*
X134366000Y-175106000D02*
X132588000Y-173328000D01*
X134366000Y-175133000D02*
X134366000Y-175106000D01*
X132588000Y-173328000D02*
X132588000Y-173228000D01*
X132463500Y-171320500D02*
X133096000Y-170688000D01*
X133096000Y-170688000D02*
X133223000Y-170561000D01*
X132588000Y-172228000D02*
X132334000Y-171974000D01*
X132588000Y-173228000D02*
X132588000Y-172228000D01*
X132334000Y-171974000D02*
X132334000Y-171320500D01*
X130386000Y-171320500D02*
X132334000Y-171320500D01*
X132334000Y-171320500D02*
X132463500Y-171320500D01*
D33*
X144018000Y-147637500D02*
X144018000Y-151955500D01*
X144018000Y-151955500D02*
X144018000Y-160718500D01*
D34*
X144051000Y-166781500D02*
X144020500Y-166751000D01*
X144020500Y-166751000D02*
X144020500Y-166690000D01*
D32*
X147838500Y-151320500D02*
X144653000Y-151320500D01*
X144653000Y-151320500D02*
X144018000Y-151955500D01*
X144018000Y-151955500D02*
X144208500Y-151955500D01*
D33*
X144018000Y-162857999D02*
X144018000Y-160718500D01*
D34*
X144025000Y-162864999D02*
X144018000Y-162857999D01*
X144025000Y-166698000D02*
X144025000Y-162864999D01*
D32*
X141130000Y-166687500D02*
X144081500Y-166687500D01*
X144081500Y-166687500D02*
X144081500Y-166751000D01*
X119253000Y-172974000D02*
X117348000Y-171069000D01*
X119253000Y-175133000D02*
X119253000Y-172974000D01*
X117348000Y-171069000D02*
X117348000Y-170942000D01*
X117348000Y-170942000D02*
X116713000Y-170307000D01*
X116738400Y-170281600D02*
X116713000Y-170307000D01*
X116738400Y-165671000D02*
X116738400Y-170281600D01*
X132588000Y-175928000D02*
X132588000Y-179070000D01*
X132588000Y-179070000D02*
X132207000Y-179451000D01*
X124953600Y-173736000D02*
X124979000Y-173761400D01*
X124053600Y-173736000D02*
X124953600Y-173736000D01*
X124053600Y-173736000D02*
X124053600Y-173482000D01*
X124053600Y-173482000D02*
X124383800Y-173151800D01*
X124383800Y-173151800D02*
X124383800Y-172111001D01*
X124953600Y-173736000D02*
X125095000Y-173736000D01*
X125095000Y-173736000D02*
X126390400Y-172440600D01*
X126390400Y-172440600D02*
X129819400Y-172440600D01*
X129819400Y-172440600D02*
X131419600Y-174040800D01*
X131419600Y-174040800D02*
X131419600Y-174675800D01*
X131419600Y-174675800D02*
X132562600Y-175818800D01*
X132562600Y-175818800D02*
X132562600Y-175945800D01*
X124053600Y-171036000D02*
X124053600Y-168706800D01*
X124053600Y-168706800D02*
X124333000Y-168427400D01*
X124053600Y-171036000D02*
X124053600Y-171551600D01*
X123933790Y-171671410D02*
X123933790Y-171924601D01*
X124053600Y-171551600D02*
X123933790Y-171671410D01*
X123933790Y-171924601D02*
X123933790Y-172660999D01*
X119888000Y-164465000D02*
X119888000Y-165862000D01*
X121031000Y-163322000D02*
X119888000Y-164465000D01*
X124587000Y-163322000D02*
X121031000Y-163322000D01*
X124587000Y-163322000D02*
X125349000Y-163322000D01*
X124587000Y-163322000D02*
X124587000Y-162712000D01*
X124587000Y-162712000D02*
X124587000Y-159410400D01*
X124587000Y-159410400D02*
X124256800Y-159080200D01*
X124286000Y-159080200D02*
X123825000Y-159080200D01*
X123705190Y-158960390D02*
X123397399Y-158960390D01*
X123825000Y-159080200D02*
X123705190Y-158960390D01*
X123397399Y-158960390D02*
X122661001Y-158960390D01*
X127406000Y-169420500D02*
X126492000Y-168506500D01*
X128186000Y-169420500D02*
X127406000Y-169420500D01*
X126492000Y-168506500D02*
X126492000Y-166751000D01*
X116738400Y-161671000D02*
X116738400Y-161493200D01*
X116738400Y-161493200D02*
X118491000Y-159740600D01*
X118491000Y-159740600D02*
X120878600Y-159740600D01*
X120878600Y-159740600D02*
X121539000Y-159080200D01*
X121539000Y-159080200D02*
X121589800Y-159080200D01*
X121589800Y-159080200D02*
X121589800Y-159054800D01*
X121589800Y-159054800D02*
X121615200Y-159080200D01*
X121586000Y-159080200D02*
X121666000Y-159080200D01*
X121666000Y-159080200D02*
X122834400Y-157911800D01*
X122834400Y-157911800D02*
X125501400Y-157911800D01*
X126492000Y-158902400D02*
X126492000Y-166751000D01*
X125501400Y-157911800D02*
X126492000Y-158902400D01*
X121666000Y-159080200D02*
X121996200Y-159410400D01*
X121996200Y-159410400D02*
X123210999Y-159410400D01*
D35*
G36*
X150939500Y-179884000D02*
G01*
X135699500Y-179884000D01*
X135699500Y-169608500D01*
X150939500Y-169608500D01*
X150939500Y-179884000D01*
X150939500Y-179884000D01*
G37*
X150939500Y-179884000D02*
X135699500Y-179884000D01*
X135699500Y-169608500D01*
X150939500Y-169608500D01*
X150939500Y-179884000D01*
G36*
X148463000Y-152844500D02*
G01*
X146367500Y-152844500D01*
X146367500Y-149733000D01*
X148463000Y-149733000D01*
X148463000Y-152844500D01*
X148463000Y-152844500D01*
G37*
X148463000Y-152844500D02*
X146367500Y-152844500D01*
X146367500Y-149733000D01*
X148463000Y-149733000D01*
X148463000Y-152844500D01*
G36*
X152141117Y-152844500D02*
G01*
X150177500Y-152844500D01*
X150177500Y-149733000D01*
X152023702Y-149733000D01*
X152141117Y-152844500D01*
X152141117Y-152844500D01*
G37*
X152141117Y-152844500D02*
X150177500Y-152844500D01*
X150177500Y-149733000D01*
X152023702Y-149733000D01*
X152141117Y-152844500D01*
M02*
