M48
; DRILL file {KiCad (5.1.4)-1} date 11/14/2019 7:24:51 PM
; FORMAT={2:4/ absolute / inch / suppress leading zeros}
; #@! TF.CreationDate,2019-11-14T19:24:51-06:00
; #@! TF.GenerationSoftware,Kicad,Pcbnew,(5.1.4)-1
FMAT,2
INCH,TZ
T1C0.0157
T2C0.1260
%
G90
G05
T1
X42750Y-67350
X42750Y-69550
X42850Y-68400
X42900Y-70500
X43800Y-69000
X43950Y-67950
X44000Y-70400
X47450Y-60450
X49150Y-57000
X49900Y-67450
X51800Y-60150
X53150Y-63150
X54350Y-64100
X60200Y-56550
X60200Y-57400
X60200Y-59400
X60200Y-69500
X60250Y-58400
X60300Y-67250
X60300Y-68350
X60350Y-70550
X61350Y-57850
X61350Y-59800
X61400Y-58900
X61450Y-56900
X61450Y-67850
X61550Y-68950
X61550Y-70250
T2
X50440Y-69480
X45330Y-61420
X60610Y-61590
T0
M30
