G04 #@! TF.GenerationSoftware,KiCad,Pcbnew,(5.1.4)-1*
G04 #@! TF.CreationDate,2019-11-14T19:44:45-06:00*
G04 #@! TF.ProjectId,Cree_GaN_Driver,43726565-5f47-4614-9e5f-447269766572,rev?*
G04 #@! TF.SameCoordinates,Original*
G04 #@! TF.FileFunction,Legend,Top*
G04 #@! TF.FilePolarity,Positive*
%FSLAX46Y46*%
G04 Gerber Fmt 4.6, Leading zero omitted, Abs format (unit mm)*
G04 Created by KiCad (PCBNEW (5.1.4)-1) date 2019-11-14 19:44:45*
%MOMM*%
%LPD*%
G04 APERTURE LIST*
%ADD10C,0.300000*%
%ADD11C,0.120000*%
%ADD12C,0.150000*%
G04 APERTURE END LIST*
D10*
X150919571Y-164013057D02*
X150205285Y-164513057D01*
X150919571Y-164870200D02*
X149419571Y-164870200D01*
X149419571Y-164298771D01*
X149491000Y-164155914D01*
X149562428Y-164084485D01*
X149705285Y-164013057D01*
X149919571Y-164013057D01*
X150062428Y-164084485D01*
X150133857Y-164155914D01*
X150205285Y-164298771D01*
X150205285Y-164870200D01*
X150848142Y-162798771D02*
X150919571Y-162941628D01*
X150919571Y-163227342D01*
X150848142Y-163370200D01*
X150705285Y-163441628D01*
X150133857Y-163441628D01*
X149991000Y-163370200D01*
X149919571Y-163227342D01*
X149919571Y-162941628D01*
X149991000Y-162798771D01*
X150133857Y-162727342D01*
X150276714Y-162727342D01*
X150419571Y-163441628D01*
X149919571Y-162227342D02*
X150919571Y-161870200D01*
X149919571Y-161513057D01*
X150776714Y-160941628D02*
X150848142Y-160870200D01*
X150919571Y-160941628D01*
X150848142Y-161013057D01*
X150776714Y-160941628D01*
X150919571Y-160941628D01*
X149419571Y-158798771D02*
X149419571Y-158655914D01*
X149491000Y-158513057D01*
X149562428Y-158441628D01*
X149705285Y-158370200D01*
X149991000Y-158298771D01*
X150348142Y-158298771D01*
X150633857Y-158370200D01*
X150776714Y-158441628D01*
X150848142Y-158513057D01*
X150919571Y-158655914D01*
X150919571Y-158798771D01*
X150848142Y-158941628D01*
X150776714Y-159013057D01*
X150633857Y-159084485D01*
X150348142Y-159155914D01*
X149991000Y-159155914D01*
X149705285Y-159084485D01*
X149562428Y-159013057D01*
X149491000Y-158941628D01*
X149419571Y-158798771D01*
X147230400Y-164074657D02*
X147158971Y-164217514D01*
X147158971Y-164431800D01*
X147230400Y-164646085D01*
X147373257Y-164788942D01*
X147516114Y-164860371D01*
X147801828Y-164931800D01*
X148016114Y-164931800D01*
X148301828Y-164860371D01*
X148444685Y-164788942D01*
X148587542Y-164646085D01*
X148658971Y-164431800D01*
X148658971Y-164288942D01*
X148587542Y-164074657D01*
X148516114Y-164003228D01*
X148016114Y-164003228D01*
X148016114Y-164288942D01*
X148658971Y-162717514D02*
X147873257Y-162717514D01*
X147730400Y-162788942D01*
X147658971Y-162931800D01*
X147658971Y-163217514D01*
X147730400Y-163360371D01*
X148587542Y-162717514D02*
X148658971Y-162860371D01*
X148658971Y-163217514D01*
X148587542Y-163360371D01*
X148444685Y-163431800D01*
X148301828Y-163431800D01*
X148158971Y-163360371D01*
X148087542Y-163217514D01*
X148087542Y-162860371D01*
X148016114Y-162717514D01*
X148658971Y-162003228D02*
X147158971Y-162003228D01*
X148658971Y-161146085D01*
X147158971Y-161146085D01*
X148658971Y-159288942D02*
X147158971Y-159288942D01*
X147158971Y-158931800D01*
X147230400Y-158717514D01*
X147373257Y-158574657D01*
X147516114Y-158503228D01*
X147801828Y-158431800D01*
X148016114Y-158431800D01*
X148301828Y-158503228D01*
X148444685Y-158574657D01*
X148587542Y-158717514D01*
X148658971Y-158931800D01*
X148658971Y-159288942D01*
X148658971Y-157788942D02*
X147658971Y-157788942D01*
X147944685Y-157788942D02*
X147801828Y-157717514D01*
X147730400Y-157646085D01*
X147658971Y-157503228D01*
X147658971Y-157360371D01*
X148658971Y-156860371D02*
X147658971Y-156860371D01*
X147158971Y-156860371D02*
X147230400Y-156931800D01*
X147301828Y-156860371D01*
X147230400Y-156788942D01*
X147158971Y-156860371D01*
X147301828Y-156860371D01*
X147658971Y-156288942D02*
X148658971Y-155931800D01*
X147658971Y-155574657D01*
X148587542Y-154431800D02*
X148658971Y-154574657D01*
X148658971Y-154860371D01*
X148587542Y-155003228D01*
X148444685Y-155074657D01*
X147873257Y-155074657D01*
X147730400Y-155003228D01*
X147658971Y-154860371D01*
X147658971Y-154574657D01*
X147730400Y-154431800D01*
X147873257Y-154360371D01*
X148016114Y-154360371D01*
X148158971Y-155074657D01*
X148658971Y-153717514D02*
X147658971Y-153717514D01*
X147944685Y-153717514D02*
X147801828Y-153646085D01*
X147730400Y-153574657D01*
X147658971Y-153431800D01*
X147658971Y-153288942D01*
X158424785Y-151991142D02*
X158639071Y-152062571D01*
X158996214Y-152062571D01*
X159139071Y-151991142D01*
X159210500Y-151919714D01*
X159281928Y-151776857D01*
X159281928Y-151634000D01*
X159210500Y-151491142D01*
X159139071Y-151419714D01*
X158996214Y-151348285D01*
X158710500Y-151276857D01*
X158567642Y-151205428D01*
X158496214Y-151134000D01*
X158424785Y-150991142D01*
X158424785Y-150848285D01*
X158496214Y-150705428D01*
X158567642Y-150634000D01*
X158710500Y-150562571D01*
X159067642Y-150562571D01*
X159281928Y-150634000D01*
X159924785Y-152062571D02*
X159924785Y-151062571D01*
X159924785Y-150562571D02*
X159853357Y-150634000D01*
X159924785Y-150705428D01*
X159996214Y-150634000D01*
X159924785Y-150562571D01*
X159924785Y-150705428D01*
X160853357Y-152062571D02*
X160710500Y-151991142D01*
X160639071Y-151848285D01*
X160639071Y-150562571D01*
X161424785Y-152062571D02*
X161424785Y-150562571D01*
X161567642Y-151491142D02*
X161996214Y-152062571D01*
X161996214Y-151062571D02*
X161424785Y-151634000D01*
X138853171Y-152134342D02*
X140353171Y-151634342D01*
X138853171Y-151134342D01*
X139781742Y-150634342D02*
X139781742Y-149491485D01*
X140353171Y-150062914D02*
X139210314Y-150062914D01*
X139353171Y-146491485D02*
X139781742Y-147634342D01*
X140210314Y-146491485D01*
X138853171Y-145062914D02*
X138853171Y-145777200D01*
X139567457Y-145848628D01*
X139496028Y-145777200D01*
X139424600Y-145634342D01*
X139424600Y-145277200D01*
X139496028Y-145134342D01*
X139567457Y-145062914D01*
X139710314Y-144991485D01*
X140067457Y-144991485D01*
X140210314Y-145062914D01*
X140281742Y-145134342D01*
X140353171Y-145277200D01*
X140353171Y-145634342D01*
X140281742Y-145777200D01*
X140210314Y-145848628D01*
X138853171Y-144062914D02*
X138853171Y-143920057D01*
X138924600Y-143777200D01*
X138996028Y-143705771D01*
X139138885Y-143634342D01*
X139424600Y-143562914D01*
X139781742Y-143562914D01*
X140067457Y-143634342D01*
X140210314Y-143705771D01*
X140281742Y-143777200D01*
X140353171Y-143920057D01*
X140353171Y-144062914D01*
X140281742Y-144205771D01*
X140210314Y-144277200D01*
X140067457Y-144348628D01*
X139781742Y-144420057D01*
X139424600Y-144420057D01*
X139138885Y-144348628D01*
X138996028Y-144277200D01*
X138924600Y-144205771D01*
X138853171Y-144062914D01*
X149440200Y-147675457D02*
X149368771Y-147818314D01*
X149368771Y-148032600D01*
X149440200Y-148246885D01*
X149583057Y-148389742D01*
X149725914Y-148461171D01*
X150011628Y-148532600D01*
X150225914Y-148532600D01*
X150511628Y-148461171D01*
X150654485Y-148389742D01*
X150797342Y-148246885D01*
X150868771Y-148032600D01*
X150868771Y-147889742D01*
X150797342Y-147675457D01*
X150725914Y-147604028D01*
X150225914Y-147604028D01*
X150225914Y-147889742D01*
X150868771Y-146961171D02*
X149368771Y-146961171D01*
X150868771Y-146104028D01*
X149368771Y-146104028D01*
X150868771Y-145389742D02*
X149368771Y-145389742D01*
X149368771Y-145032600D01*
X149440200Y-144818314D01*
X149583057Y-144675457D01*
X149725914Y-144604028D01*
X150011628Y-144532600D01*
X150225914Y-144532600D01*
X150511628Y-144604028D01*
X150654485Y-144675457D01*
X150797342Y-144818314D01*
X150868771Y-145032600D01*
X150868771Y-145389742D01*
X150151400Y-176123457D02*
X150079971Y-176266314D01*
X150079971Y-176480600D01*
X150151400Y-176694885D01*
X150294257Y-176837742D01*
X150437114Y-176909171D01*
X150722828Y-176980600D01*
X150937114Y-176980600D01*
X151222828Y-176909171D01*
X151365685Y-176837742D01*
X151508542Y-176694885D01*
X151579971Y-176480600D01*
X151579971Y-176337742D01*
X151508542Y-176123457D01*
X151437114Y-176052028D01*
X150937114Y-176052028D01*
X150937114Y-176337742D01*
X151579971Y-175409171D02*
X150079971Y-175409171D01*
X151579971Y-174552028D01*
X150079971Y-174552028D01*
X151579971Y-173837742D02*
X150079971Y-173837742D01*
X150079971Y-173480600D01*
X150151400Y-173266314D01*
X150294257Y-173123457D01*
X150437114Y-173052028D01*
X150722828Y-172980600D01*
X150937114Y-172980600D01*
X151222828Y-173052028D01*
X151365685Y-173123457D01*
X151508542Y-173266314D01*
X151579971Y-173480600D01*
X151579971Y-173837742D01*
X113651600Y-178892057D02*
X113580171Y-179034914D01*
X113580171Y-179249200D01*
X113651600Y-179463485D01*
X113794457Y-179606342D01*
X113937314Y-179677771D01*
X114223028Y-179749200D01*
X114437314Y-179749200D01*
X114723028Y-179677771D01*
X114865885Y-179606342D01*
X115008742Y-179463485D01*
X115080171Y-179249200D01*
X115080171Y-179106342D01*
X115008742Y-178892057D01*
X114937314Y-178820628D01*
X114437314Y-178820628D01*
X114437314Y-179106342D01*
X115080171Y-178177771D02*
X113580171Y-178177771D01*
X115080171Y-177320628D01*
X113580171Y-177320628D01*
X115080171Y-176606342D02*
X113580171Y-176606342D01*
X113580171Y-176249200D01*
X113651600Y-176034914D01*
X113794457Y-175892057D01*
X113937314Y-175820628D01*
X114223028Y-175749200D01*
X114437314Y-175749200D01*
X114723028Y-175820628D01*
X114865885Y-175892057D01*
X115008742Y-176034914D01*
X115080171Y-176249200D01*
X115080171Y-176606342D01*
X113007800Y-167627714D02*
X113007800Y-166199142D01*
X115084942Y-167342000D02*
X115156371Y-167127714D01*
X115156371Y-166770571D01*
X115084942Y-166627714D01*
X115013514Y-166556285D01*
X114870657Y-166484857D01*
X114727800Y-166484857D01*
X114584942Y-166556285D01*
X114513514Y-166627714D01*
X114442085Y-166770571D01*
X114370657Y-167056285D01*
X114299228Y-167199142D01*
X114227800Y-167270571D01*
X114084942Y-167342000D01*
X113942085Y-167342000D01*
X113799228Y-167270571D01*
X113727800Y-167199142D01*
X113656371Y-167056285D01*
X113656371Y-166699142D01*
X113727800Y-166484857D01*
X113007800Y-166199142D02*
X113007800Y-164627714D01*
X115156371Y-165842000D02*
X113656371Y-165842000D01*
X114370657Y-165842000D02*
X114370657Y-164984857D01*
X115156371Y-164984857D02*
X113656371Y-164984857D01*
X113007800Y-164627714D02*
X113007800Y-163127714D01*
X115156371Y-164270571D02*
X113656371Y-164270571D01*
X113656371Y-163913428D01*
X113727800Y-163699142D01*
X113870657Y-163556285D01*
X114013514Y-163484857D01*
X114299228Y-163413428D01*
X114513514Y-163413428D01*
X114799228Y-163484857D01*
X114942085Y-163556285D01*
X115084942Y-163699142D01*
X115156371Y-163913428D01*
X115156371Y-164270571D01*
X113007800Y-163127714D02*
X113007800Y-161556285D01*
X115156371Y-162770571D02*
X113656371Y-162770571D01*
X115156371Y-161913428D01*
X113656371Y-161913428D01*
X114432542Y-149781971D02*
X114432542Y-148639114D01*
X115003971Y-149210542D02*
X113861114Y-149210542D01*
X113503971Y-147210542D02*
X113503971Y-147924828D01*
X114218257Y-147996257D01*
X114146828Y-147924828D01*
X114075400Y-147781971D01*
X114075400Y-147424828D01*
X114146828Y-147281971D01*
X114218257Y-147210542D01*
X114361114Y-147139114D01*
X114718257Y-147139114D01*
X114861114Y-147210542D01*
X114932542Y-147281971D01*
X115003971Y-147424828D01*
X115003971Y-147781971D01*
X114932542Y-147924828D01*
X114861114Y-147996257D01*
X113503971Y-146710542D02*
X115003971Y-146210542D01*
X113503971Y-145710542D01*
X136187571Y-177958428D02*
X134687571Y-177958428D01*
X134687571Y-177601285D01*
X134759000Y-177387000D01*
X134901857Y-177244142D01*
X135044714Y-177172714D01*
X135330428Y-177101285D01*
X135544714Y-177101285D01*
X135830428Y-177172714D01*
X135973285Y-177244142D01*
X136116142Y-177387000D01*
X136187571Y-177601285D01*
X136187571Y-177958428D01*
X136187571Y-176458428D02*
X135187571Y-176458428D01*
X135473285Y-176458428D02*
X135330428Y-176387000D01*
X135259000Y-176315571D01*
X135187571Y-176172714D01*
X135187571Y-176029857D01*
X136187571Y-174887000D02*
X135401857Y-174887000D01*
X135259000Y-174958428D01*
X135187571Y-175101285D01*
X135187571Y-175387000D01*
X135259000Y-175529857D01*
X136116142Y-174887000D02*
X136187571Y-175029857D01*
X136187571Y-175387000D01*
X136116142Y-175529857D01*
X135973285Y-175601285D01*
X135830428Y-175601285D01*
X135687571Y-175529857D01*
X135616142Y-175387000D01*
X135616142Y-175029857D01*
X135544714Y-174887000D01*
X136187571Y-174172714D02*
X135187571Y-174172714D01*
X134687571Y-174172714D02*
X134759000Y-174244142D01*
X134830428Y-174172714D01*
X134759000Y-174101285D01*
X134687571Y-174172714D01*
X134830428Y-174172714D01*
X135187571Y-173458428D02*
X136187571Y-173458428D01*
X135330428Y-173458428D02*
X135259000Y-173387000D01*
X135187571Y-173244142D01*
X135187571Y-173029857D01*
X135259000Y-172887000D01*
X135401857Y-172815571D01*
X136187571Y-172815571D01*
X123540057Y-179157914D02*
X123611485Y-178943628D01*
X123682914Y-178872200D01*
X123825771Y-178800771D01*
X124040057Y-178800771D01*
X124182914Y-178872200D01*
X124254342Y-178943628D01*
X124325771Y-179086485D01*
X124325771Y-179657914D01*
X122825771Y-179657914D01*
X122825771Y-179157914D01*
X122897200Y-179015057D01*
X122968628Y-178943628D01*
X123111485Y-178872200D01*
X123254342Y-178872200D01*
X123397200Y-178943628D01*
X123468628Y-179015057D01*
X123540057Y-179157914D01*
X123540057Y-179657914D01*
X124325771Y-178157914D02*
X123325771Y-178157914D01*
X122825771Y-178157914D02*
X122897200Y-178229342D01*
X122968628Y-178157914D01*
X122897200Y-178086485D01*
X122825771Y-178157914D01*
X122968628Y-178157914D01*
X124325771Y-176800771D02*
X123540057Y-176800771D01*
X123397200Y-176872200D01*
X123325771Y-177015057D01*
X123325771Y-177300771D01*
X123397200Y-177443628D01*
X124254342Y-176800771D02*
X124325771Y-176943628D01*
X124325771Y-177300771D01*
X124254342Y-177443628D01*
X124111485Y-177515057D01*
X123968628Y-177515057D01*
X123825771Y-177443628D01*
X123754342Y-177300771D01*
X123754342Y-176943628D01*
X123682914Y-176800771D01*
X124254342Y-176157914D02*
X124325771Y-176015057D01*
X124325771Y-175729342D01*
X124254342Y-175586485D01*
X124111485Y-175515057D01*
X124040057Y-175515057D01*
X123897200Y-175586485D01*
X123825771Y-175729342D01*
X123825771Y-175943628D01*
X123754342Y-176086485D01*
X123611485Y-176157914D01*
X123540057Y-176157914D01*
X123397200Y-176086485D01*
X123325771Y-175943628D01*
X123325771Y-175729342D01*
X123397200Y-175586485D01*
D11*
X111039800Y-155436000D02*
X111039800Y-156636000D01*
X109279800Y-156636000D02*
X109279800Y-155436000D01*
X120816000Y-151773000D02*
X120816000Y-152773000D01*
X122516000Y-152773000D02*
X122516000Y-151773000D01*
X122516000Y-146951000D02*
X122516000Y-145951000D01*
X120816000Y-145951000D02*
X120816000Y-146951000D01*
X120103000Y-152773000D02*
X120103000Y-151773000D01*
X118403000Y-151773000D02*
X118403000Y-152773000D01*
X118403000Y-145951000D02*
X118403000Y-146951000D01*
X120103000Y-146951000D02*
X120103000Y-145951000D01*
X127008000Y-145630000D02*
X128008000Y-145630000D01*
X128008000Y-143930000D02*
X127008000Y-143930000D01*
X130552000Y-149138000D02*
X130552000Y-151138000D01*
X132592000Y-151138000D02*
X132592000Y-149138000D01*
X129615500Y-166218500D02*
X128615500Y-166218500D01*
X128615500Y-167918500D02*
X129615500Y-167918500D01*
X136399000Y-162181000D02*
X137799000Y-162181000D01*
X137799000Y-159861000D02*
X135899000Y-159861000D01*
X143125000Y-168428000D02*
X143125000Y-167328000D01*
X142855000Y-168428000D02*
X143125000Y-168428000D01*
X142855000Y-169928000D02*
X142855000Y-168428000D01*
X149485000Y-168428000D02*
X149485000Y-165598000D01*
X149755000Y-168428000D02*
X149485000Y-168428000D01*
X149755000Y-169928000D02*
X149755000Y-168428000D01*
X128504000Y-152318000D02*
X127504000Y-152318000D01*
X127504000Y-150958000D02*
X128504000Y-150958000D01*
X129655000Y-153298000D02*
X130855000Y-153298000D01*
X130855000Y-155058000D02*
X129655000Y-155058000D01*
X132506000Y-159249000D02*
X131306000Y-159249000D01*
X131306000Y-157489000D02*
X132506000Y-157489000D01*
X131306000Y-160156000D02*
X132506000Y-160156000D01*
X132506000Y-161916000D02*
X131306000Y-161916000D01*
X138164000Y-156473000D02*
X139364000Y-156473000D01*
X139364000Y-158233000D02*
X138164000Y-158233000D01*
X139401000Y-160913000D02*
X139401000Y-159913000D01*
X140761000Y-159913000D02*
X140761000Y-160913000D01*
X134039500Y-168564000D02*
X134039500Y-169764000D01*
X132279500Y-169764000D02*
X132279500Y-168564000D01*
X131708000Y-175178000D02*
X131708000Y-173978000D01*
X133468000Y-173978000D02*
X133468000Y-175178000D01*
X137680000Y-165218000D02*
X136480000Y-165218000D01*
X136480000Y-163458000D02*
X137680000Y-163458000D01*
X139180000Y-165807500D02*
X140380000Y-165807500D01*
X140380000Y-167567500D02*
X139180000Y-167567500D01*
X115668400Y-164671000D02*
X115668400Y-162671000D01*
X117808400Y-162671000D02*
X117808400Y-164671000D01*
D12*
X119888000Y-165100000D02*
X119888000Y-162433000D01*
X119888000Y-162433000D02*
X124587000Y-162433000D01*
X124587000Y-164084000D02*
X124587000Y-167640000D01*
X124587000Y-169291000D02*
X119888000Y-169291000D01*
X119888000Y-169291000D02*
X119888000Y-166624000D01*
X120269000Y-162433000D02*
X120269000Y-161671000D01*
X120269000Y-161671000D02*
X121666000Y-161671000D01*
X121666000Y-161671000D02*
X121666000Y-162433000D01*
D11*
X133766000Y-180131000D02*
X132766000Y-180131000D01*
X132766000Y-178771000D02*
X133766000Y-178771000D01*
D12*
X124944000Y-146759000D02*
X123719000Y-146759000D01*
X124944000Y-149884000D02*
X128294000Y-149884000D01*
X124944000Y-146534000D02*
X128294000Y-146534000D01*
X124944000Y-149884000D02*
X124944000Y-149584000D01*
X128294000Y-149884000D02*
X128294000Y-149584000D01*
X128294000Y-146534000D02*
X128294000Y-146834000D01*
X124944000Y-146534000D02*
X124944000Y-146759000D01*
D11*
X130186000Y-168760500D02*
X127736000Y-168760500D01*
X128386000Y-171980500D02*
X130186000Y-171980500D01*
X148288500Y-149840500D02*
X150288500Y-149840500D01*
X150288500Y-152800500D02*
X148288500Y-152800500D01*
X124933600Y-171786000D02*
X124933600Y-172986000D01*
X123173600Y-172986000D02*
X123173600Y-171786000D01*
X122336000Y-158200200D02*
X123536000Y-158200200D01*
X123536000Y-159960200D02*
X122336000Y-159960200D01*
D12*
X111720333Y-159100780D02*
X111387000Y-158624590D01*
X111148904Y-159100780D02*
X111148904Y-158100780D01*
X111529857Y-158100780D01*
X111625095Y-158148400D01*
X111672714Y-158196019D01*
X111720333Y-158291257D01*
X111720333Y-158434114D01*
X111672714Y-158529352D01*
X111625095Y-158576971D01*
X111529857Y-158624590D01*
X111148904Y-158624590D01*
X112672714Y-159100780D02*
X112101285Y-159100780D01*
X112387000Y-159100780D02*
X112387000Y-158100780D01*
X112291761Y-158243638D01*
X112196523Y-158338876D01*
X112101285Y-158386495D01*
X121931133Y-156109942D02*
X121883514Y-156157561D01*
X121740657Y-156205180D01*
X121645419Y-156205180D01*
X121502561Y-156157561D01*
X121407323Y-156062323D01*
X121359704Y-155967085D01*
X121312085Y-155776609D01*
X121312085Y-155633752D01*
X121359704Y-155443276D01*
X121407323Y-155348038D01*
X121502561Y-155252800D01*
X121645419Y-155205180D01*
X121740657Y-155205180D01*
X121883514Y-155252800D01*
X121931133Y-155300419D01*
X122883514Y-156205180D02*
X122312085Y-156205180D01*
X122597800Y-156205180D02*
X122597800Y-155205180D01*
X122502561Y-155348038D01*
X122407323Y-155443276D01*
X122312085Y-155490895D01*
X121499333Y-143867142D02*
X121451714Y-143914761D01*
X121308857Y-143962380D01*
X121213619Y-143962380D01*
X121070761Y-143914761D01*
X120975523Y-143819523D01*
X120927904Y-143724285D01*
X120880285Y-143533809D01*
X120880285Y-143390952D01*
X120927904Y-143200476D01*
X120975523Y-143105238D01*
X121070761Y-143010000D01*
X121213619Y-142962380D01*
X121308857Y-142962380D01*
X121451714Y-143010000D01*
X121499333Y-143057619D01*
X121880285Y-143057619D02*
X121927904Y-143010000D01*
X122023142Y-142962380D01*
X122261238Y-142962380D01*
X122356476Y-143010000D01*
X122404095Y-143057619D01*
X122451714Y-143152857D01*
X122451714Y-143248095D01*
X122404095Y-143390952D01*
X121832666Y-143962380D01*
X122451714Y-143962380D01*
X119467333Y-156084542D02*
X119419714Y-156132161D01*
X119276857Y-156179780D01*
X119181619Y-156179780D01*
X119038761Y-156132161D01*
X118943523Y-156036923D01*
X118895904Y-155941685D01*
X118848285Y-155751209D01*
X118848285Y-155608352D01*
X118895904Y-155417876D01*
X118943523Y-155322638D01*
X119038761Y-155227400D01*
X119181619Y-155179780D01*
X119276857Y-155179780D01*
X119419714Y-155227400D01*
X119467333Y-155275019D01*
X119800666Y-155179780D02*
X120419714Y-155179780D01*
X120086380Y-155560733D01*
X120229238Y-155560733D01*
X120324476Y-155608352D01*
X120372095Y-155655971D01*
X120419714Y-155751209D01*
X120419714Y-155989304D01*
X120372095Y-156084542D01*
X120324476Y-156132161D01*
X120229238Y-156179780D01*
X119943523Y-156179780D01*
X119848285Y-156132161D01*
X119800666Y-156084542D01*
X119086333Y-143867142D02*
X119038714Y-143914761D01*
X118895857Y-143962380D01*
X118800619Y-143962380D01*
X118657761Y-143914761D01*
X118562523Y-143819523D01*
X118514904Y-143724285D01*
X118467285Y-143533809D01*
X118467285Y-143390952D01*
X118514904Y-143200476D01*
X118562523Y-143105238D01*
X118657761Y-143010000D01*
X118800619Y-142962380D01*
X118895857Y-142962380D01*
X119038714Y-143010000D01*
X119086333Y-143057619D01*
X119943476Y-143295714D02*
X119943476Y-143962380D01*
X119705380Y-142914761D02*
X119467285Y-143629047D01*
X120086333Y-143629047D01*
X130897333Y-145137142D02*
X130849714Y-145184761D01*
X130706857Y-145232380D01*
X130611619Y-145232380D01*
X130468761Y-145184761D01*
X130373523Y-145089523D01*
X130325904Y-144994285D01*
X130278285Y-144803809D01*
X130278285Y-144660952D01*
X130325904Y-144470476D01*
X130373523Y-144375238D01*
X130468761Y-144280000D01*
X130611619Y-144232380D01*
X130706857Y-144232380D01*
X130849714Y-144280000D01*
X130897333Y-144327619D01*
X131802095Y-144232380D02*
X131325904Y-144232380D01*
X131278285Y-144708571D01*
X131325904Y-144660952D01*
X131421142Y-144613333D01*
X131659238Y-144613333D01*
X131754476Y-144660952D01*
X131802095Y-144708571D01*
X131849714Y-144803809D01*
X131849714Y-145041904D01*
X131802095Y-145137142D01*
X131754476Y-145184761D01*
X131659238Y-145232380D01*
X131421142Y-145232380D01*
X131325904Y-145184761D01*
X131278285Y-145137142D01*
X131481533Y-147245342D02*
X131433914Y-147292961D01*
X131291057Y-147340580D01*
X131195819Y-147340580D01*
X131052961Y-147292961D01*
X130957723Y-147197723D01*
X130910104Y-147102485D01*
X130862485Y-146912009D01*
X130862485Y-146769152D01*
X130910104Y-146578676D01*
X130957723Y-146483438D01*
X131052961Y-146388200D01*
X131195819Y-146340580D01*
X131291057Y-146340580D01*
X131433914Y-146388200D01*
X131481533Y-146435819D01*
X132338676Y-146340580D02*
X132148200Y-146340580D01*
X132052961Y-146388200D01*
X132005342Y-146435819D01*
X131910104Y-146578676D01*
X131862485Y-146769152D01*
X131862485Y-147150104D01*
X131910104Y-147245342D01*
X131957723Y-147292961D01*
X132052961Y-147340580D01*
X132243438Y-147340580D01*
X132338676Y-147292961D01*
X132386295Y-147245342D01*
X132433914Y-147150104D01*
X132433914Y-146912009D01*
X132386295Y-146816771D01*
X132338676Y-146769152D01*
X132243438Y-146721533D01*
X132052961Y-146721533D01*
X131957723Y-146769152D01*
X131910104Y-146816771D01*
X131862485Y-146912009D01*
X128801833Y-165584142D02*
X128754214Y-165631761D01*
X128611357Y-165679380D01*
X128516119Y-165679380D01*
X128373261Y-165631761D01*
X128278023Y-165536523D01*
X128230404Y-165441285D01*
X128182785Y-165250809D01*
X128182785Y-165107952D01*
X128230404Y-164917476D01*
X128278023Y-164822238D01*
X128373261Y-164727000D01*
X128516119Y-164679380D01*
X128611357Y-164679380D01*
X128754214Y-164727000D01*
X128801833Y-164774619D01*
X129135166Y-164679380D02*
X129801833Y-164679380D01*
X129373261Y-165679380D01*
X135540761Y-159424619D02*
X135445523Y-159377000D01*
X135350285Y-159281761D01*
X135207428Y-159138904D01*
X135112190Y-159091285D01*
X135016952Y-159091285D01*
X135064571Y-159329380D02*
X134969333Y-159281761D01*
X134874095Y-159186523D01*
X134826476Y-158996047D01*
X134826476Y-158662714D01*
X134874095Y-158472238D01*
X134969333Y-158377000D01*
X135064571Y-158329380D01*
X135255047Y-158329380D01*
X135350285Y-158377000D01*
X135445523Y-158472238D01*
X135493142Y-158662714D01*
X135493142Y-158996047D01*
X135445523Y-159186523D01*
X135350285Y-159281761D01*
X135255047Y-159329380D01*
X135064571Y-159329380D01*
X136445523Y-159329380D02*
X135874095Y-159329380D01*
X136159809Y-159329380D02*
X136159809Y-158329380D01*
X136064571Y-158472238D01*
X135969333Y-158567476D01*
X135874095Y-158615095D01*
X146081761Y-177966619D02*
X145986523Y-177919000D01*
X145891285Y-177823761D01*
X145748428Y-177680904D01*
X145653190Y-177633285D01*
X145557952Y-177633285D01*
X145605571Y-177871380D02*
X145510333Y-177823761D01*
X145415095Y-177728523D01*
X145367476Y-177538047D01*
X145367476Y-177204714D01*
X145415095Y-177014238D01*
X145510333Y-176919000D01*
X145605571Y-176871380D01*
X145796047Y-176871380D01*
X145891285Y-176919000D01*
X145986523Y-177014238D01*
X146034142Y-177204714D01*
X146034142Y-177538047D01*
X145986523Y-177728523D01*
X145891285Y-177823761D01*
X145796047Y-177871380D01*
X145605571Y-177871380D01*
X146415095Y-176966619D02*
X146462714Y-176919000D01*
X146557952Y-176871380D01*
X146796047Y-176871380D01*
X146891285Y-176919000D01*
X146938904Y-176966619D01*
X146986523Y-177061857D01*
X146986523Y-177157095D01*
X146938904Y-177299952D01*
X146367476Y-177871380D01*
X146986523Y-177871380D01*
X125436333Y-152090380D02*
X125103000Y-151614190D01*
X124864904Y-152090380D02*
X124864904Y-151090380D01*
X125245857Y-151090380D01*
X125341095Y-151138000D01*
X125388714Y-151185619D01*
X125436333Y-151280857D01*
X125436333Y-151423714D01*
X125388714Y-151518952D01*
X125341095Y-151566571D01*
X125245857Y-151614190D01*
X124864904Y-151614190D01*
X125817285Y-151185619D02*
X125864904Y-151138000D01*
X125960142Y-151090380D01*
X126198238Y-151090380D01*
X126293476Y-151138000D01*
X126341095Y-151185619D01*
X126388714Y-151280857D01*
X126388714Y-151376095D01*
X126341095Y-151518952D01*
X125769666Y-152090380D01*
X126388714Y-152090380D01*
X126452333Y-154630380D02*
X126119000Y-154154190D01*
X125880904Y-154630380D02*
X125880904Y-153630380D01*
X126261857Y-153630380D01*
X126357095Y-153678000D01*
X126404714Y-153725619D01*
X126452333Y-153820857D01*
X126452333Y-153963714D01*
X126404714Y-154058952D01*
X126357095Y-154106571D01*
X126261857Y-154154190D01*
X125880904Y-154154190D01*
X126785666Y-153630380D02*
X127404714Y-153630380D01*
X127071380Y-154011333D01*
X127214238Y-154011333D01*
X127309476Y-154058952D01*
X127357095Y-154106571D01*
X127404714Y-154201809D01*
X127404714Y-154439904D01*
X127357095Y-154535142D01*
X127309476Y-154582761D01*
X127214238Y-154630380D01*
X126928523Y-154630380D01*
X126833285Y-154582761D01*
X126785666Y-154535142D01*
X128103333Y-158821380D02*
X127770000Y-158345190D01*
X127531904Y-158821380D02*
X127531904Y-157821380D01*
X127912857Y-157821380D01*
X128008095Y-157869000D01*
X128055714Y-157916619D01*
X128103333Y-158011857D01*
X128103333Y-158154714D01*
X128055714Y-158249952D01*
X128008095Y-158297571D01*
X127912857Y-158345190D01*
X127531904Y-158345190D01*
X128960476Y-158154714D02*
X128960476Y-158821380D01*
X128722380Y-157773761D02*
X128484285Y-158488047D01*
X129103333Y-158488047D01*
X128103333Y-161615380D02*
X127770000Y-161139190D01*
X127531904Y-161615380D02*
X127531904Y-160615380D01*
X127912857Y-160615380D01*
X128008095Y-160663000D01*
X128055714Y-160710619D01*
X128103333Y-160805857D01*
X128103333Y-160948714D01*
X128055714Y-161043952D01*
X128008095Y-161091571D01*
X127912857Y-161139190D01*
X127531904Y-161139190D01*
X129008095Y-160615380D02*
X128531904Y-160615380D01*
X128484285Y-161091571D01*
X128531904Y-161043952D01*
X128627142Y-160996333D01*
X128865238Y-160996333D01*
X128960476Y-161043952D01*
X129008095Y-161091571D01*
X129055714Y-161186809D01*
X129055714Y-161424904D01*
X129008095Y-161520142D01*
X128960476Y-161567761D01*
X128865238Y-161615380D01*
X128627142Y-161615380D01*
X128531904Y-161567761D01*
X128484285Y-161520142D01*
X138263333Y-155773380D02*
X137930000Y-155297190D01*
X137691904Y-155773380D02*
X137691904Y-154773380D01*
X138072857Y-154773380D01*
X138168095Y-154821000D01*
X138215714Y-154868619D01*
X138263333Y-154963857D01*
X138263333Y-155106714D01*
X138215714Y-155201952D01*
X138168095Y-155249571D01*
X138072857Y-155297190D01*
X137691904Y-155297190D01*
X139120476Y-154773380D02*
X138930000Y-154773380D01*
X138834761Y-154821000D01*
X138787142Y-154868619D01*
X138691904Y-155011476D01*
X138644285Y-155201952D01*
X138644285Y-155582904D01*
X138691904Y-155678142D01*
X138739523Y-155725761D01*
X138834761Y-155773380D01*
X139025238Y-155773380D01*
X139120476Y-155725761D01*
X139168095Y-155678142D01*
X139215714Y-155582904D01*
X139215714Y-155344809D01*
X139168095Y-155249571D01*
X139120476Y-155201952D01*
X139025238Y-155154333D01*
X138834761Y-155154333D01*
X138739523Y-155201952D01*
X138691904Y-155249571D01*
X138644285Y-155344809D01*
X139812733Y-162885380D02*
X139479400Y-162409190D01*
X139241304Y-162885380D02*
X139241304Y-161885380D01*
X139622257Y-161885380D01*
X139717495Y-161933000D01*
X139765114Y-161980619D01*
X139812733Y-162075857D01*
X139812733Y-162218714D01*
X139765114Y-162313952D01*
X139717495Y-162361571D01*
X139622257Y-162409190D01*
X139241304Y-162409190D01*
X140146066Y-161885380D02*
X140812733Y-161885380D01*
X140384161Y-162885380D01*
X135024833Y-169632880D02*
X134691500Y-169156690D01*
X134453404Y-169632880D02*
X134453404Y-168632880D01*
X134834357Y-168632880D01*
X134929595Y-168680500D01*
X134977214Y-168728119D01*
X135024833Y-168823357D01*
X135024833Y-168966214D01*
X134977214Y-169061452D01*
X134929595Y-169109071D01*
X134834357Y-169156690D01*
X134453404Y-169156690D01*
X135596261Y-169061452D02*
X135501023Y-169013833D01*
X135453404Y-168966214D01*
X135405785Y-168870976D01*
X135405785Y-168823357D01*
X135453404Y-168728119D01*
X135501023Y-168680500D01*
X135596261Y-168632880D01*
X135786738Y-168632880D01*
X135881976Y-168680500D01*
X135929595Y-168728119D01*
X135977214Y-168823357D01*
X135977214Y-168870976D01*
X135929595Y-168966214D01*
X135881976Y-169013833D01*
X135786738Y-169061452D01*
X135596261Y-169061452D01*
X135501023Y-169109071D01*
X135453404Y-169156690D01*
X135405785Y-169251928D01*
X135405785Y-169442404D01*
X135453404Y-169537642D01*
X135501023Y-169585261D01*
X135596261Y-169632880D01*
X135786738Y-169632880D01*
X135881976Y-169585261D01*
X135929595Y-169537642D01*
X135977214Y-169442404D01*
X135977214Y-169251928D01*
X135929595Y-169156690D01*
X135881976Y-169109071D01*
X135786738Y-169061452D01*
X130541733Y-173400980D02*
X130208400Y-172924790D01*
X129970304Y-173400980D02*
X129970304Y-172400980D01*
X130351257Y-172400980D01*
X130446495Y-172448600D01*
X130494114Y-172496219D01*
X130541733Y-172591457D01*
X130541733Y-172734314D01*
X130494114Y-172829552D01*
X130446495Y-172877171D01*
X130351257Y-172924790D01*
X129970304Y-172924790D01*
X131017923Y-173400980D02*
X131208400Y-173400980D01*
X131303638Y-173353361D01*
X131351257Y-173305742D01*
X131446495Y-173162885D01*
X131494114Y-172972409D01*
X131494114Y-172591457D01*
X131446495Y-172496219D01*
X131398876Y-172448600D01*
X131303638Y-172400980D01*
X131113161Y-172400980D01*
X131017923Y-172448600D01*
X130970304Y-172496219D01*
X130922685Y-172591457D01*
X130922685Y-172829552D01*
X130970304Y-172924790D01*
X131017923Y-172972409D01*
X131113161Y-173020028D01*
X131303638Y-173020028D01*
X131398876Y-172972409D01*
X131446495Y-172924790D01*
X131494114Y-172829552D01*
X132503942Y-164841180D02*
X132170609Y-164364990D01*
X131932514Y-164841180D02*
X131932514Y-163841180D01*
X132313466Y-163841180D01*
X132408704Y-163888800D01*
X132456323Y-163936419D01*
X132503942Y-164031657D01*
X132503942Y-164174514D01*
X132456323Y-164269752D01*
X132408704Y-164317371D01*
X132313466Y-164364990D01*
X131932514Y-164364990D01*
X133456323Y-164841180D02*
X132884895Y-164841180D01*
X133170609Y-164841180D02*
X133170609Y-163841180D01*
X133075371Y-163984038D01*
X132980133Y-164079276D01*
X132884895Y-164126895D01*
X134075371Y-163841180D02*
X134170609Y-163841180D01*
X134265847Y-163888800D01*
X134313466Y-163936419D01*
X134361085Y-164031657D01*
X134408704Y-164222133D01*
X134408704Y-164460228D01*
X134361085Y-164650704D01*
X134313466Y-164745942D01*
X134265847Y-164793561D01*
X134170609Y-164841180D01*
X134075371Y-164841180D01*
X133980133Y-164793561D01*
X133932514Y-164745942D01*
X133884895Y-164650704D01*
X133837276Y-164460228D01*
X133837276Y-164222133D01*
X133884895Y-164031657D01*
X133932514Y-163936419D01*
X133980133Y-163888800D01*
X134075371Y-163841180D01*
X139184142Y-169044880D02*
X138850809Y-168568690D01*
X138612714Y-169044880D02*
X138612714Y-168044880D01*
X138993666Y-168044880D01*
X139088904Y-168092500D01*
X139136523Y-168140119D01*
X139184142Y-168235357D01*
X139184142Y-168378214D01*
X139136523Y-168473452D01*
X139088904Y-168521071D01*
X138993666Y-168568690D01*
X138612714Y-168568690D01*
X140136523Y-169044880D02*
X139565095Y-169044880D01*
X139850809Y-169044880D02*
X139850809Y-168044880D01*
X139755571Y-168187738D01*
X139660333Y-168282976D01*
X139565095Y-168330595D01*
X140517476Y-168140119D02*
X140565095Y-168092500D01*
X140660333Y-168044880D01*
X140898428Y-168044880D01*
X140993666Y-168092500D01*
X141041285Y-168140119D01*
X141088904Y-168235357D01*
X141088904Y-168330595D01*
X141041285Y-168473452D01*
X140469857Y-169044880D01*
X141088904Y-169044880D01*
X115993942Y-168828980D02*
X115660609Y-168352790D01*
X115422514Y-168828980D02*
X115422514Y-167828980D01*
X115803466Y-167828980D01*
X115898704Y-167876600D01*
X115946323Y-167924219D01*
X115993942Y-168019457D01*
X115993942Y-168162314D01*
X115946323Y-168257552D01*
X115898704Y-168305171D01*
X115803466Y-168352790D01*
X115422514Y-168352790D01*
X116946323Y-168828980D02*
X116374895Y-168828980D01*
X116660609Y-168828980D02*
X116660609Y-167828980D01*
X116565371Y-167971838D01*
X116470133Y-168067076D01*
X116374895Y-168114695D01*
X117803466Y-168162314D02*
X117803466Y-168828980D01*
X117565371Y-167781361D02*
X117327276Y-168495647D01*
X117946323Y-168495647D01*
X123102761Y-161996380D02*
X122769428Y-161520190D01*
X122531333Y-161996380D02*
X122531333Y-160996380D01*
X122912285Y-160996380D01*
X123007523Y-161044000D01*
X123055142Y-161091619D01*
X123102761Y-161186857D01*
X123102761Y-161329714D01*
X123055142Y-161424952D01*
X123007523Y-161472571D01*
X122912285Y-161520190D01*
X122531333Y-161520190D01*
X123388476Y-160996380D02*
X123721809Y-161996380D01*
X124055142Y-160996380D01*
X124912285Y-161996380D02*
X124340857Y-161996380D01*
X124626571Y-161996380D02*
X124626571Y-160996380D01*
X124531333Y-161139238D01*
X124436095Y-161234476D01*
X124340857Y-161282095D01*
X131657885Y-177455580D02*
X132229314Y-177455580D01*
X131943600Y-178455580D02*
X131943600Y-177455580D01*
X132562647Y-178455580D02*
X132562647Y-177455580D01*
X132562647Y-177931771D02*
X133134076Y-177931771D01*
X133134076Y-178455580D02*
X133134076Y-177455580D01*
X134134076Y-178455580D02*
X133562647Y-178455580D01*
X133848361Y-178455580D02*
X133848361Y-177455580D01*
X133753123Y-177598438D01*
X133657885Y-177693676D01*
X133562647Y-177741295D01*
X122936095Y-144867380D02*
X122936095Y-145676904D01*
X122983714Y-145772142D01*
X123031333Y-145819761D01*
X123126571Y-145867380D01*
X123317047Y-145867380D01*
X123412285Y-145819761D01*
X123459904Y-145772142D01*
X123507523Y-145676904D01*
X123507523Y-144867380D01*
X124507523Y-145867380D02*
X123936095Y-145867380D01*
X124221809Y-145867380D02*
X124221809Y-144867380D01*
X124126571Y-145010238D01*
X124031333Y-145105476D01*
X123936095Y-145153095D01*
X125603095Y-172019980D02*
X125603095Y-172829504D01*
X125650714Y-172924742D01*
X125698333Y-172972361D01*
X125793571Y-173019980D01*
X125984047Y-173019980D01*
X126079285Y-172972361D01*
X126126904Y-172924742D01*
X126174523Y-172829504D01*
X126174523Y-172019980D01*
X126603095Y-172115219D02*
X126650714Y-172067600D01*
X126745952Y-172019980D01*
X126984047Y-172019980D01*
X127079285Y-172067600D01*
X127126904Y-172115219D01*
X127174523Y-172210457D01*
X127174523Y-172305695D01*
X127126904Y-172448552D01*
X126555476Y-173019980D01*
X127174523Y-173019980D01*
X147585133Y-149074142D02*
X147537514Y-149121761D01*
X147394657Y-149169380D01*
X147299419Y-149169380D01*
X147156561Y-149121761D01*
X147061323Y-149026523D01*
X147013704Y-148931285D01*
X146966085Y-148740809D01*
X146966085Y-148597952D01*
X147013704Y-148407476D01*
X147061323Y-148312238D01*
X147156561Y-148217000D01*
X147299419Y-148169380D01*
X147394657Y-148169380D01*
X147537514Y-148217000D01*
X147585133Y-148264619D01*
X148156561Y-148597952D02*
X148061323Y-148550333D01*
X148013704Y-148502714D01*
X147966085Y-148407476D01*
X147966085Y-148359857D01*
X148013704Y-148264619D01*
X148061323Y-148217000D01*
X148156561Y-148169380D01*
X148347038Y-148169380D01*
X148442276Y-148217000D01*
X148489895Y-148264619D01*
X148537514Y-148359857D01*
X148537514Y-148407476D01*
X148489895Y-148502714D01*
X148442276Y-148550333D01*
X148347038Y-148597952D01*
X148156561Y-148597952D01*
X148061323Y-148645571D01*
X148013704Y-148693190D01*
X147966085Y-148788428D01*
X147966085Y-148978904D01*
X148013704Y-149074142D01*
X148061323Y-149121761D01*
X148156561Y-149169380D01*
X148347038Y-149169380D01*
X148442276Y-149121761D01*
X148489895Y-149074142D01*
X148537514Y-148978904D01*
X148537514Y-148788428D01*
X148489895Y-148693190D01*
X148442276Y-148645571D01*
X148347038Y-148597952D01*
X126156980Y-171127657D02*
X125680790Y-171460990D01*
X126156980Y-171699085D02*
X125156980Y-171699085D01*
X125156980Y-171318133D01*
X125204600Y-171222895D01*
X125252219Y-171175276D01*
X125347457Y-171127657D01*
X125490314Y-171127657D01*
X125585552Y-171175276D01*
X125633171Y-171222895D01*
X125680790Y-171318133D01*
X125680790Y-171699085D01*
X126156980Y-170175276D02*
X126156980Y-170746704D01*
X126156980Y-170460990D02*
X125156980Y-170460990D01*
X125299838Y-170556228D01*
X125395076Y-170651466D01*
X125442695Y-170746704D01*
X126156980Y-169222895D02*
X126156980Y-169794323D01*
X126156980Y-169508609D02*
X125156980Y-169508609D01*
X125299838Y-169603847D01*
X125395076Y-169699085D01*
X125442695Y-169794323D01*
X118254542Y-159583380D02*
X117921209Y-159107190D01*
X117683114Y-159583380D02*
X117683114Y-158583380D01*
X118064066Y-158583380D01*
X118159304Y-158631000D01*
X118206923Y-158678619D01*
X118254542Y-158773857D01*
X118254542Y-158916714D01*
X118206923Y-159011952D01*
X118159304Y-159059571D01*
X118064066Y-159107190D01*
X117683114Y-159107190D01*
X119206923Y-159583380D02*
X118635495Y-159583380D01*
X118921209Y-159583380D02*
X118921209Y-158583380D01*
X118825971Y-158726238D01*
X118730733Y-158821476D01*
X118635495Y-158869095D01*
X119540257Y-158583380D02*
X120159304Y-158583380D01*
X119825971Y-158964333D01*
X119968828Y-158964333D01*
X120064066Y-159011952D01*
X120111685Y-159059571D01*
X120159304Y-159154809D01*
X120159304Y-159392904D01*
X120111685Y-159488142D01*
X120064066Y-159535761D01*
X119968828Y-159583380D01*
X119683114Y-159583380D01*
X119587876Y-159535761D01*
X119540257Y-159488142D01*
M02*
